<svg xmlns="http://www.w3.org/2000/svg" viewBox="0 0 249.35 41.35">
  <defs>
    <style>
      .cls-1, .cls-2, .cls-6 {
        stroke: #000;
        stroke-miterlimit: 10;
      }

      .cls-2 {
        fill: #2d9e9e;
      }

      .cls-3 {
        fill: #231f20;
      }

      .cls-4 {
        fill: #782d14;
      }

      .cls-5 {
        fill: #f15a29;
      }

      .cls-6 {
        fill: #f1f2f2;
      }
    </style>
  </defs>
  <g id="Layer_2" data-name="Layer 2">
    <g id="Layer_1-2" data-name="Layer 1">
      <g>
        <path class="cls-1" d="M11,3.36H24.87L23.66,9h-8l-1.94,9.24H20.6L19.4,23.9H12.54l-2,9.23h8l-1.2,5.65H3.48Z"/>
        <path class="cls-1" d="M22.81,23.9l1-4.83h13l-1,4.83Z"/>
        <path class="cls-1" d="M55.08,6.76,42.81,33.13h7l-1.2,5.65H35l.72-3.4L48,9H41.51l1.21-5.64H55.81Z"/>
      </g>
      <g>
        <path class="cls-2" d="M9.71,2.08H23.59L22.38,7.72h-8L12.46,17h6.86l-1.2,5.66H11.25l-2,9.23h8l-1.2,5.65H2.2Z"/>
        <path class="cls-2" d="M21.53,22.62l1-4.83h13l-1,4.83Z"/>
        <path class="cls-2" d="M53.8,5.48,41.52,31.85h7l-1.2,5.65H33.69l.72-3.4L46.69,7.72H40.23l1.21-5.64H54.53Z"/>
      </g>
      <g>
        <path class="cls-3" d="M67.31,9.34a6,6,0,0,0,.49,1.72,8.21,8.21,0,0,0,.91,1.53,4.61,4.61,0,0,0,1,1,8.28,8.28,0,0,0,1.24.74c.43-.56.89-1.12,1.38-1.67a16.63,16.63,0,0,1,1.6-1.54,11.18,11.18,0,0,1,1.82-1.23,7,7,0,0,1,2-.71A4,4,0,0,1,79,9.14a3.32,3.32,0,0,1,1.14.31,2.7,2.7,0,0,1,.88.7,2.33,2.33,0,0,1,.47,1.12,3.21,3.21,0,0,1-.26,1.86,6.38,6.38,0,0,1-1,1.61,8.54,8.54,0,0,1-3.5,2.44,9.6,9.6,0,0,1-4.23.61c-.45.83-.91,1.63-1.4,2.43s-1,1.58-1.54,2.36c-.37.52-.77,1.05-1.18,1.58s-.84,1.05-1.28,1.56a18.38,18.38,0,0,1,1.84,1.38l1.77,1.5c.78.69,1.58,1.34,2.39,1.95a12.76,12.76,0,0,0,2.65,1.5,9.41,9.41,0,0,0,3.18.79,7.53,7.53,0,0,0,3.31-.49,4.4,4.4,0,0,1-1.82,3.22,5.45,5.45,0,0,1-3.86.76,8.15,8.15,0,0,1-2.17-.56,12.06,12.06,0,0,1-1.95-1,17.28,17.28,0,0,1-1.76-1.33c-.56-.49-1.09-1-1.6-1.54q-1-1.06-2-2.13c-.66-.71-1.33-1.4-2-2.07a10.55,10.55,0,0,1-2.2,1.37,7.29,7.29,0,0,1-2.53.67,4.18,4.18,0,0,1-2.7-.6,2.85,2.85,0,0,1-1.21-1.64,2.75,2.75,0,0,1,.24-1.93A3.24,3.24,0,0,1,58.23,24,6.06,6.06,0,0,1,61,23.51a8.53,8.53,0,0,1,2.85.5,2,2,0,0,0,.36.14l.43-.59L65,23c.71-1,1.39-2,2-3s1.34-2,2-3.05a8.67,8.67,0,0,1-1.53-1,6.54,6.54,0,0,1-1.22-1.25,5,5,0,0,1-.75-1.5,3.58,3.58,0,0,1-.09-1.73,3.18,3.18,0,0,1,.37-1,2.43,2.43,0,0,1,.53-.66A1.64,1.64,0,0,1,67,9.41.58.58,0,0,1,67.31,9.34ZM59.69,27.45a6.46,6.46,0,0,0,1.55-.63,8.38,8.38,0,0,0,1.36-1,6.64,6.64,0,0,0-2-.74,2.94,2.94,0,0,0-1.92.23,1.82,1.82,0,0,0-.81.76,1,1,0,0,0-.09.8,1.06,1.06,0,0,0,.62.54A2.06,2.06,0,0,0,59.69,27.45ZM73.83,15.16a8.18,8.18,0,0,0,1.85,0,6,6,0,0,0,1.76-.52,8.71,8.71,0,0,0,.8-.49,5.08,5.08,0,0,0,.81-.66,4.08,4.08,0,0,0,.65-.79,2.07,2.07,0,0,0,.29-.91,1.12,1.12,0,0,0-.22-.84,1.14,1.14,0,0,0-.76-.45,2,2,0,0,0-1.19.14,5.44,5.44,0,0,0-1,.61,6.91,6.91,0,0,0-1.64,1.73c-.44.66-.84,1.34-1.22,2.05Z"/>
        <path class="cls-3" d="M90.71,17.4c-.2.28-.45.65-.74,1.09s-.59.94-.91,1.46-.63,1.06-.94,1.62-.58,1.1-.82,1.6c-.51,1-.9,1.92-1.18,2.63s-.35,1.17-.22,1.37a.27.27,0,0,0,.29.13,1.66,1.66,0,0,0,.46-.1,1.82,1.82,0,0,0,.47-.21l.29-.18a5.33,5.33,0,0,0,1.09-.91,13.2,13.2,0,0,0,.9-1.08c.26-.35.51-.73.75-1.12s.47-.77.68-1.15a1.1,1.1,0,0,1,.57,0,.55.55,0,0,1,.32.45c-.26.49-.51,1-.75,1.43a14,14,0,0,1-.84,1.37c-.3.45-.62.88-.94,1.29s-.68.8-1,1.18A7.39,7.39,0,0,1,87,29.2a2.41,2.41,0,0,1-1.42.38,2.32,2.32,0,0,1-1.4-.45A2.52,2.52,0,0,1,83.27,28a2.92,2.92,0,0,1-.2-.76,11.38,11.38,0,0,1-.95,1.18,5,5,0,0,1-1.15.89,3.14,3.14,0,0,1-1.88.42,2.73,2.73,0,0,1-1.7-.75,3.27,3.27,0,0,1-1-1.53,6.77,6.77,0,0,1-.25-1.78,8.06,8.06,0,0,1,.37-2.21,10.73,10.73,0,0,1,.88-2.1,12,12,0,0,1,1.26-1.89,13.69,13.69,0,0,1,1.52-1.61A6.61,6.61,0,0,1,82,16.65a4.46,4.46,0,0,1,2.06-.4,3.35,3.35,0,0,1,1.82.63A3.39,3.39,0,0,1,87,18.41a4.36,4.36,0,0,1,.77-.71,3.23,3.23,0,0,1,.91-.49A2.56,2.56,0,0,1,89.78,17,1.44,1.44,0,0,1,90.71,17.4Zm-8.84,7.67a9.65,9.65,0,0,0,2.26-2.29,7.51,7.51,0,0,0,1.32-3,2.28,2.28,0,0,0,0-1.16,1,1,0,0,0-.87-.69,1.45,1.45,0,0,0-1,.23,5.9,5.9,0,0,0-.87.67,9.81,9.81,0,0,0-2,2.69,15.2,15.2,0,0,0-1.13,3.13c-.24,1.08-.19,1.8.15,2.14s.82.36,1.42.05a5.83,5.83,0,0,0,1.1-.76c.35-.3.68-.61,1-.92a5.29,5.29,0,0,1-.8.09A.63.63,0,0,1,81.87,25.07Z"/>
        <path class="cls-3" d="M101.35,10.49q-.27.3-.78,1T99.46,13.1l-1.29,2.05c-.45.74-.9,1.49-1.33,2.25a4.48,4.48,0,0,1,1-.71A3.59,3.59,0,0,1,99,16.3a2.33,2.33,0,0,1,1.14.07,2.3,2.3,0,0,1,1.06.67,3.08,3.08,0,0,1,.69,1.13,5.31,5.31,0,0,1,.29,1.3,6.22,6.22,0,0,1,0,1.36,10,10,0,0,1-.26,1.3,10.22,10.22,0,0,1-1.09,2.47,2.33,2.33,0,0,0,1-.1,3.84,3.84,0,0,0,.89-.43,3.8,3.8,0,0,0,.77-.68,3.94,3.94,0,0,0,.58-.84,1,1,0,0,1,.58-.07c.17.05.27.22.31.52a5.79,5.79,0,0,1-2.14,2.31,8.16,8.16,0,0,1-3.26,1.14L99,27a13,13,0,0,1-1.17,1.07,11.2,11.2,0,0,1-1.5,1.05,8.23,8.23,0,0,1-1.65.77,4.46,4.46,0,0,1-1.65.27,3.06,3.06,0,0,1-1.5-.45,3,3,0,0,1-1.15-1.4A4,4,0,0,1,90,27a6.37,6.37,0,0,1,0-1.38,8.32,8.32,0,0,1,.27-1.39c.13-.46.27-.9.42-1.33a11.3,11.3,0,0,1,.6-1.34c.29-.58.62-1.23,1-1.94s.78-1.45,1.22-2.22.87-1.52,1.3-2.23.84-1.36,1.23-1.94.73-1.05,1-1.39.58-.7.83-1a3.4,3.4,0,0,1,1-.71,2.08,2.08,0,0,1,.63-.15,3.3,3.3,0,0,1,.77,0,2.4,2.4,0,0,1,.7.16A.66.66,0,0,1,101.35,10.49Zm-4.67,13a3.8,3.8,0,0,1,1-.67,1.13,1.13,0,0,1,1,0,1.5,1.5,0,0,1,.31.28,16.17,16.17,0,0,0,.64-1.93,5.89,5.89,0,0,0,.2-2,1.19,1.19,0,0,0-.38-.91,1.15,1.15,0,0,0-.75-.22,2.27,2.27,0,0,0-.91.23,4.26,4.26,0,0,0-.84.51,8.65,8.65,0,0,0-2,2.13q-.28.64-.54,1.26L94,23.37l-.36.89a6.93,6.93,0,0,0-.33,1,5.51,5.51,0,0,0-.15,1,2.29,2.29,0,0,0,.14,1,.83.83,0,0,0,.66.58,2.14,2.14,0,0,0,1-.11,6.19,6.19,0,0,0,1-.48,5.93,5.93,0,0,0,.74-.52l.33-.31A2,2,0,0,1,96.4,26a1.25,1.25,0,0,1-.42-.52,1.21,1.21,0,0,1,0-1A2.86,2.86,0,0,1,96.68,23.48Z"/>
        <path class="cls-3" d="M108.07,24c-.2,0-.41,0-.63,0s-.42,0-.63-.07a5.24,5.24,0,0,0-.29,2.57,1.93,1.93,0,0,0,1,1.4,2.81,2.81,0,0,0,1.92.14A8.49,8.49,0,0,0,112,26.87a10.17,10.17,0,0,0,2.12-2,15.78,15.78,0,0,0,1.58-2.34,1.47,1.47,0,0,1,.57-.09c.18,0,.29.19.32.54a15.2,15.2,0,0,1-1.69,2.52,19.23,19.23,0,0,1-2.31,2.38,11,11,0,0,1-4,2.24,4,4,0,0,1-3.36-.33,5,5,0,0,1-2.15-4.32,7.9,7.9,0,0,1,.43-2.36,10.81,10.81,0,0,1,1.08-2.28,11.32,11.32,0,0,1,1.57-2,8.59,8.59,0,0,1,1.93-1.47,9.33,9.33,0,0,1,2.39-.86,5.19,5.19,0,0,1,2.54,0,2.11,2.11,0,0,1,1,.49,2.07,2.07,0,0,1,.57.81,2.51,2.51,0,0,1,.16,1,3.73,3.73,0,0,1-.23,1.07A5,5,0,0,1,113,22a8.47,8.47,0,0,1-2.26,1.35A8.18,8.18,0,0,1,108.07,24Zm2.41-5.37a12.29,12.29,0,0,0-1.89,2,13.83,13.83,0,0,0-1.44,2.41c.28-.08.6-.18.95-.31a12.55,12.55,0,0,0,1.63-.74A7,7,0,0,0,111.15,21a7,7,0,0,0,1-1.18,2.2,2.2,0,0,0,.42-1.48c0-.3-.09-.47-.28-.51a1.16,1.16,0,0,0-.64.09,3.09,3.09,0,0,0-.7.36A4.32,4.32,0,0,0,110.48,18.61Z"/>
        <path class="cls-3" d="M126.52,9.87A1.72,1.72,0,0,1,127,10a.51.51,0,0,1,.53-.09.88.88,0,0,1,.45.26,1.06,1.06,0,0,1,.24.56,2.6,2.6,0,0,1,0,.62,4.88,4.88,0,0,1-.52,1.93,17.14,17.14,0,0,1-1,1.76,15.73,15.73,0,0,1-1.25,1.88c-.45.6-.94,1.19-1.44,1.76s-1.18,1.3-1.81,1.92-1.27,1.22-1.94,1.78c-.21.15-.4.3-.59.45l-.56.45a.57.57,0,0,0-.17.15.45.45,0,0,1-.19.15c-.1.26-.18.52-.27.76s-.17.49-.27.76a6.94,6.94,0,0,0-.23,1.28,2.59,2.59,0,0,0,.12,1.21,1,1,0,0,0,.74.64,2.25,2.25,0,0,0,1.56-.42,8,8,0,0,0,1.22-.85c.44-.37.87-.78,1.31-1.23a15.6,15.6,0,0,0,1.26-1.5,11.53,11.53,0,0,0,1-1.63.84.84,0,0,1,.59-.05c.15.05.25.22.31.5-.28.54-.61,1.1-1,1.68a17.72,17.72,0,0,1-1.25,1.71,17.1,17.1,0,0,1-1.48,1.6,11.68,11.68,0,0,1-1.72,1.34,5.2,5.2,0,0,1-2.13.81,3.24,3.24,0,0,1-1.9-.26,3.05,3.05,0,0,1-1.36-1.35,4.52,4.52,0,0,1-.46-2.42,9,9,0,0,1,.25-1.85,13.94,13.94,0,0,1,.57-1.8,18.07,18.07,0,0,1,.8-1.73q.45-.84.9-1.59c.67-1.14,1.37-2.27,2.11-3.4A21.6,21.6,0,0,1,122,12.61a15,15,0,0,1,1.16-1.1,7.78,7.78,0,0,1,1.3-.91,5.59,5.59,0,0,1,1-.52A2.8,2.8,0,0,1,126.52,9.87ZM120,21c.43-.4.85-.81,1.26-1.24s.81-.86,1.2-1.31c.51-.6,1-1.22,1.46-1.85s.92-1.28,1.34-1.93a14.13,14.13,0,0,0,.86-1.42,9,9,0,0,0,.63-1.52l-1,.95a13.62,13.62,0,0,0-1,1c-.71.89-1.37,1.81-2,2.76s-1.23,1.9-1.81,2.89Z"/>
        <path class="cls-3" d="M156.34,11.77a2.51,2.51,0,0,1,.54,1.5,3.61,3.61,0,0,1-.34,1.5,5.35,5.35,0,0,1-.9,1.36,6.88,6.88,0,0,1-1.14,1.05,11.3,11.3,0,0,1-2.57,1.37,11.69,11.69,0,0,1-2.81.7,8.59,8.59,0,0,1-2.21-.07,6.83,6.83,0,0,1-2.07-.69c-.1.13-.18.26-.27.4l-.27.42c-.18.31-.4.7-.64,1.16s-.46.93-.66,1.41a10.31,10.31,0,0,0-.45,1.47,3,3,0,0,0,0,1.36,1.52,1.52,0,0,0,.85,1,2.13,2.13,0,0,0,1.36.16,2.76,2.76,0,0,0,1.37-.67,5.89,5.89,0,0,0,1-1.15,9.42,9.42,0,0,1,1.15-1.73,5.68,5.68,0,0,1,1.57-1.4,3,3,0,0,1,.65-.32,3.12,3.12,0,0,1,.9-.21,3.57,3.57,0,0,1,1,0,2.16,2.16,0,0,1,.91.35,11.14,11.14,0,0,0-1.51,2.28c-.43.85-.87,1.7-1.32,2.54-.65,1.13-1.3,2.27-1.93,3.4a29.88,29.88,0,0,1-2.13,3.26c-.33.45-.7.9-1.09,1.34a9.66,9.66,0,0,1-1.26,1.22,8.54,8.54,0,0,1-1.44,1,4.76,4.76,0,0,1-1.64.52,5.8,5.8,0,0,1-1.56,0A6.35,6.35,0,0,1,138,36a5.35,5.35,0,0,1-1.35-.73,4.82,4.82,0,0,1-1.06-1.1,4.26,4.26,0,0,1-.67-1.6,5.09,5.09,0,0,1,0-1.74,4.82,4.82,0,0,1,.58-1.63,3.94,3.94,0,0,1,2.63-2,2.58,2.58,0,0,1,1.58.12c.17.08.26.15.28.21a.2.2,0,0,1-.06.2.93.93,0,0,1-.23.19,1.59,1.59,0,0,0-.27.21,4.7,4.7,0,0,0-1.11,1.75,5.72,5.72,0,0,0-.33,2,4,4,0,0,0,.38,1.74,1.88,1.88,0,0,0,1,1,2.2,2.2,0,0,0,1.5.14,3.59,3.59,0,0,0,1.32-.67,5.35,5.35,0,0,0,1.07-1.15,10.45,10.45,0,0,0,.79-1.29,22.36,22.36,0,0,0,1-2.26c.28-.77.58-1.54.89-2.33l-.64.45a3.32,3.32,0,0,1-.7.36,3.65,3.65,0,0,1-1.62.35,4,4,0,0,1-1.53-.32,3.73,3.73,0,0,1-1.27-.91,4.66,4.66,0,0,1-.9-1.41,5.79,5.79,0,0,1-.42-2.54,7.8,7.8,0,0,1,.59-2.49,10.92,10.92,0,0,1,1.32-2.34,20.61,20.61,0,0,1,1.73-2.07,5.21,5.21,0,0,1-.66-2.11,3.91,3.91,0,0,1,.47-2.2,4.67,4.67,0,0,1,.29-.46,3.27,3.27,0,0,1,.41-.51,2.38,2.38,0,0,1,.46-.39.91.91,0,0,1,.49-.15q.19.9.42,1.8a5.81,5.81,0,0,0,.72,1.7,21,21,0,0,1,2.52-1.61,13.77,13.77,0,0,1,2.78-1.14c.46-.13,1-.25,1.54-.37a6.85,6.85,0,0,1,1.68-.17,4.86,4.86,0,0,1,1.58.28A2.63,2.63,0,0,1,156.34,11.77Zm-5.29,4c.34-.06.73-.15,1.18-.27a6.5,6.5,0,0,0,1.29-.5,4.1,4.1,0,0,0,1.07-.8,2,2,0,0,0,.55-1.18,1.06,1.06,0,0,0-.29-1,1.71,1.71,0,0,0-.89-.37,3.66,3.66,0,0,0-1.13.06,6.05,6.05,0,0,0-1,.29,7.22,7.22,0,0,0-1.51.79c-.47.32-.92.65-1.35,1s-.63.53-.94.82-.6.58-.88.88a5.82,5.82,0,0,0,2,.35A12.29,12.29,0,0,0,151.05,15.78Z"/>
        <path class="cls-3" d="M158.22,24c-.2,0-.41,0-.63,0s-.42,0-.63-.07a5.24,5.24,0,0,0-.29,2.57,1.9,1.9,0,0,0,1,1.4,2.8,2.8,0,0,0,1.92.14,8.49,8.49,0,0,0,2.63-1.17,10.12,10.12,0,0,0,2.11-2,15.12,15.12,0,0,0,1.59-2.34,1.47,1.47,0,0,1,.57-.09c.18,0,.28.19.32.54a15.2,15.2,0,0,1-1.69,2.52,19.23,19.23,0,0,1-2.31,2.38,11,11,0,0,1-4,2.24,4,4,0,0,1-3.36-.33,5,5,0,0,1-1.64-1.89,5.06,5.06,0,0,1-.52-2.43,7.92,7.92,0,0,1,.44-2.36,10.81,10.81,0,0,1,1.08-2.28,11.27,11.27,0,0,1,1.56-2,8.64,8.64,0,0,1,1.94-1.47,9.33,9.33,0,0,1,2.39-.86,5.19,5.19,0,0,1,2.54,0,2.08,2.08,0,0,1,1,.49,2,2,0,0,1,.58.81,2.34,2.34,0,0,1,.15,1,3.71,3.71,0,0,1-.22,1.07A5,5,0,0,1,163.16,22a8.41,8.41,0,0,1-2.25,1.35A8.24,8.24,0,0,1,158.22,24Zm2.41-5.37a12.29,12.29,0,0,0-1.89,2,13.83,13.83,0,0,0-1.44,2.41c.28-.08.59-.18.95-.31a11.85,11.85,0,0,0,1.62-.74A6.76,6.76,0,0,0,161.3,21a7.5,7.5,0,0,0,1-1.18,2.31,2.31,0,0,0,.42-1.48c0-.3-.1-.47-.28-.51a1.2,1.2,0,0,0-.65.09,3.57,3.57,0,0,0-.7.36A5,5,0,0,0,160.63,18.61Z"/>
        <path class="cls-3" d="M180,22.55q.87-.36.9.45a28.61,28.61,0,0,1-1.82,3,16.62,16.62,0,0,1-2.21,2.59,7.61,7.61,0,0,1-1.24.94,5.2,5.2,0,0,1-1.42.62,3.13,3.13,0,0,1-1.46,0,2.38,2.38,0,0,1-1.32-.85,2.42,2.42,0,0,1-.61-1.29,4.79,4.79,0,0,1,0-1.51,10.22,10.22,0,0,1,.39-1.54c.18-.5.35-1,.52-1.4a19.37,19.37,0,0,1,1.3-2.42,23.84,23.84,0,0,0,1.36-2.42c-.54.43-1.12.93-1.75,1.51a18.13,18.13,0,0,0-1.58,1.65c-.56.67-1.09,1.36-1.6,2.06s-1,1.41-1.48,2.14c-.24.37-.48.74-.7,1.11s-.44.73-.64,1.1q-.18.25-.42.63a.74.74,0,0,1-.7.35,1.35,1.35,0,0,1-.68-.19,2.75,2.75,0,0,1-.6-.48,2.61,2.61,0,0,1-.42-.6,1,1,0,0,1-.1-.58,13.94,13.94,0,0,1,1.53-3.93c.72-1.26,1.45-2.48,2.2-3.65.32-.49.62-1,.91-1.52a16,16,0,0,1,1-1.51,1.3,1.3,0,0,1,.66-.5,1.46,1.46,0,0,1,1.14.28,2.25,2.25,0,0,1,.51.38.58.58,0,0,1,.19.44,1.46,1.46,0,0,1-.21.66,9.41,9.41,0,0,1-.63,1,13.27,13.27,0,0,0-.83,1.29c-.29.5-.54,1-.74,1.37l1.08-1.2c.42-.47.86-.94,1.33-1.4a16.8,16.8,0,0,1,1.41-1.29,7.8,7.8,0,0,1,1.33-.9,3.18,3.18,0,0,1,3.61.62c.15.15.22.28.2.38a2,2,0,0,1-.17.43,10.82,10.82,0,0,1-.59,1.18c-.22.41-.46.81-.7,1.22s-.47.81-.7,1.24l-1,1.84a17.72,17.72,0,0,0-.94,1.91,2.8,2.8,0,0,0-.24,1.68.7.7,0,0,0,.73.52,2.81,2.81,0,0,0,1.36-.54,8,8,0,0,0,1.65-1.54c.39-.49.78-1,1.15-1.54A19.92,19.92,0,0,0,180,22.55Z"/>
        <path class="cls-3" d="M184.12,24c-.2,0-.41,0-.63,0s-.42,0-.63-.07a5.13,5.13,0,0,0-.29,2.57,1.9,1.9,0,0,0,1,1.4,2.8,2.8,0,0,0,1.92.14,8.49,8.49,0,0,0,2.63-1.17,10.12,10.12,0,0,0,2.11-2,14.37,14.37,0,0,0,1.58-2.34,1.55,1.55,0,0,1,.58-.09c.18,0,.28.19.32.54A15.2,15.2,0,0,1,191,25.52a19.23,19.23,0,0,1-2.31,2.38,11,11,0,0,1-4,2.24,4,4,0,0,1-3.36-.33,4.9,4.9,0,0,1-1.64-1.89,5.06,5.06,0,0,1-.52-2.43,7.92,7.92,0,0,1,.44-2.36,10.81,10.81,0,0,1,1.08-2.28,11.27,11.27,0,0,1,1.56-2,8.64,8.64,0,0,1,1.94-1.47,9.33,9.33,0,0,1,2.39-.86,5.15,5.15,0,0,1,2.53,0,2.07,2.07,0,0,1,1,.49,2,2,0,0,1,.58.81,2.34,2.34,0,0,1,.15,1,3.71,3.71,0,0,1-.22,1.07A5,5,0,0,1,189.06,22a8.41,8.41,0,0,1-2.25,1.35A8.24,8.24,0,0,1,184.12,24Zm2.41-5.37a12.29,12.29,0,0,0-1.89,2,13.83,13.83,0,0,0-1.44,2.41c.28-.08.59-.18,1-.31a11.85,11.85,0,0,0,1.62-.74A6.76,6.76,0,0,0,187.2,21a7.5,7.5,0,0,0,1-1.18,2.31,2.31,0,0,0,.42-1.48c0-.3-.1-.47-.28-.51a1.19,1.19,0,0,0-.65.09,3.57,3.57,0,0,0-.7.36A5,5,0,0,0,186.53,18.61Z"/>
        <path class="cls-3" d="M188.29,27.29a30.61,30.61,0,0,0,3.08-4.22,27.63,27.63,0,0,0,2.33-4.83,2.25,2.25,0,0,1-.28-1.29,2.62,2.62,0,0,1,.32-1.12,1.57,1.57,0,0,1,.68-.67.81.81,0,0,1,.84.09.83.83,0,0,1,.4.88,5.13,5.13,0,0,1-.31,1.13.85.85,0,0,0,.46.11h.46a5.58,5.58,0,0,0,1.35-.25,2.87,2.87,0,0,1,.72-.77c.23-.14.5-.08.82.18a3.11,3.11,0,0,1,1.27,1.64,1.56,1.56,0,0,1-.49,1.44q-1.06,1.38-2.07,2.94a15.43,15.43,0,0,0-1.51,2.92,3.63,3.63,0,0,0-.31,1.58.87.87,0,0,0,.42.78,1.2,1.2,0,0,0,1,0,4.29,4.29,0,0,0,1.33-.87,13.9,13.9,0,0,0,1.71-1.9A17.43,17.43,0,0,0,202,22.55a.55.55,0,0,1,.63,0,.68.68,0,0,1,.27.49c-.51.95-1,1.83-1.56,2.63a14.42,14.42,0,0,1-1.89,2.3,6.49,6.49,0,0,1-1.82,1.33,4.92,4.92,0,0,1-1.76.49,2.88,2.88,0,0,1-1.51-.28,2.55,2.55,0,0,1-1.07-1,3.36,3.36,0,0,1-.42-1.63,5.71,5.71,0,0,1,.45-2.2,19.65,19.65,0,0,1,1.4-2.94,21.9,21.9,0,0,1,1.62-2.46,1,1,0,0,1-.3,0,6.26,6.26,0,0,1-.65-.12,6,6,0,0,1-.78-.27c-.21.54-.47,1.18-.79,1.92A23.88,23.88,0,0,1,192.74,23c-.35.67-.71,1.29-1.07,1.85a9.5,9.5,0,0,1-1.11,1.4,4.41,4.41,0,0,1-1.13.84A1.85,1.85,0,0,1,188.29,27.29Z"/>
        <path class="cls-3" d="M215.87,17.4c-.2.28-.45.65-.74,1.09s-.59.94-.91,1.46-.63,1.06-.94,1.62-.58,1.1-.82,1.6c-.51,1-.9,1.92-1.18,2.63s-.36,1.17-.23,1.37a.29.29,0,0,0,.3.13,2.28,2.28,0,0,0,.92-.31l.3-.18a5.33,5.33,0,0,0,1.09-.91,11.33,11.33,0,0,0,.89-1.08,12.92,12.92,0,0,0,.76-1.12c.24-.39.47-.77.67-1.15a1.13,1.13,0,0,1,.58,0,.57.57,0,0,1,.32.45l-.76,1.43a11,11,0,0,1-.84,1.37c-.3.45-.61.88-.94,1.29a14.39,14.39,0,0,1-1,1.18,7.47,7.47,0,0,1-1.17.93,2.38,2.38,0,0,1-1.41.38,2.32,2.32,0,0,1-1.4-.45,2.61,2.61,0,0,1-.9-1.17,2.92,2.92,0,0,1-.19-.76,11.38,11.38,0,0,1-.95,1.18,5,5,0,0,1-1.15.89,3.16,3.16,0,0,1-1.88.42,2.78,2.78,0,0,1-1.71-.75,3.33,3.33,0,0,1-.95-1.53,6.38,6.38,0,0,1-.25-1.78,8.43,8.43,0,0,1,.36-2.21,11.41,11.41,0,0,1,.89-2.1,12.62,12.62,0,0,1,1.25-1.89,14.65,14.65,0,0,1,1.53-1.61,6.46,6.46,0,0,1,1.78-1.17,4.46,4.46,0,0,1,2.06-.4,3.26,3.26,0,0,1,3,2.16,4.81,4.81,0,0,1,.78-.71,3.1,3.1,0,0,1,.91-.49,2.54,2.54,0,0,1,1.07-.17A1.45,1.45,0,0,1,215.87,17.4ZM207,25.07a9.68,9.68,0,0,0,2.27-2.29,7.66,7.66,0,0,0,1.32-3,2.28,2.28,0,0,0,0-1.16,1,1,0,0,0-.87-.69,1.48,1.48,0,0,0-1,.23,6.37,6.37,0,0,0-.86.67,9.61,9.61,0,0,0-1.95,2.69,15.2,15.2,0,0,0-1.13,3.13c-.25,1.08-.19,1.8.15,2.14s.82.36,1.42.05a5.83,5.83,0,0,0,1.1-.76c.35-.3.68-.61,1-.92a5.44,5.44,0,0,1-.8.09A.65.65,0,0,1,207,25.07Z"/>
        <path class="cls-3" d="M224.44,11.77a1.05,1.05,0,0,1,0,.66c-.08.18-.17.38-.28.6l-.34.68a6,6,0,0,1,1,.16,2.4,2.4,0,0,1,1,.58,1.89,1.89,0,0,1,.52,1,1,1,0,0,1,0,.54.65.65,0,0,1-.43.16l-.84.14c-.34.06-.68.11-1,.14l-.93.12-.58.08h-.06l-.64,1.34-2.38,4.79-.42.83c-.21.4-.42.84-.65,1.33a5.79,5.79,0,0,0-.66,2.2c0,.47.18.74.49.79a1.93,1.93,0,0,0,1.29-.43,9.14,9.14,0,0,0,1.74-1.53,13.08,13.08,0,0,0,1.17-1.52,18.75,18.75,0,0,0,1.07-1.84c.56-.3.87-.15.92.45-.3.56-.61,1.12-.95,1.68a19.51,19.51,0,0,1-1.11,1.63,18.14,18.14,0,0,1-1.27,1.49,8.19,8.19,0,0,1-1.46,1.25,3.9,3.9,0,0,1-1.52.67,3.57,3.57,0,0,1-1.72,0,1.85,1.85,0,0,1-1-.61,2.42,2.42,0,0,1-.56-1.09,4.49,4.49,0,0,1-.13-1.32,6.83,6.83,0,0,1,.23-1.34,11.15,11.15,0,0,1,.43-1.31c.17-.42.34-.82.51-1.21a27.44,27.44,0,0,1,1.44-2.93L218.87,17l-1.54.18c-.45.05-.75.07-.9.07a1.39,1.39,0,0,1-.12-.66,2.11,2.11,0,0,1,.14-.74,2.61,2.61,0,0,1,.33-.67,1.89,1.89,0,0,1,.44-.48,3.68,3.68,0,0,1,1.41-.67,13.08,13.08,0,0,1,1.53-.28h.28l.28,0,.81-1.54c.13-.22.24-.45.35-.68a1.43,1.43,0,0,1,.46-.6.72.72,0,0,1,.57-.12,2.68,2.68,0,0,1,.68.21,2.51,2.51,0,0,1,.56.38A1.21,1.21,0,0,1,224.44,11.77Z"/>
        <path class="cls-3" d="M231.33,17.29a1.82,1.82,0,0,1,.89-.06,2.23,2.23,0,0,1,1.32.84,4,4,0,0,1,.7,1.43,6,6,0,0,1,0,2.54,11,11,0,0,1-.79,2.47,1.78,1.78,0,0,0,1.75-.19,4.71,4.71,0,0,0,1.5-1.77q.81-.36.9.45a7.36,7.36,0,0,1-2.23,2.65,6.45,6.45,0,0,1-3.26,1.08c-.3.39-.62.77-1,1.16a8.11,8.11,0,0,1-1.1,1,5.62,5.62,0,0,1-1.28.74,4.35,4.35,0,0,1-1.44.35,3.72,3.72,0,0,1-1.68-.26,3.92,3.92,0,0,1-1.31-.93,4.57,4.57,0,0,1-.9-1.38,5.87,5.87,0,0,1-.42-1.66,7.68,7.68,0,0,1,.08-2,10.51,10.51,0,0,1,.55-1.95,9.26,9.26,0,0,1,.94-1.79,8.78,8.78,0,0,1,1.26-1.51,7.09,7.09,0,0,1,1.55-1.09,4.62,4.62,0,0,1,1.81-.53,3.88,3.88,0,0,1,1,0,3.16,3.16,0,0,1,1,.29ZM230,23.51a4.43,4.43,0,0,1,1-.68,1.14,1.14,0,0,1,1,0,1.07,1.07,0,0,1,.34.3,7.27,7.27,0,0,0,.26-1.56,5.6,5.6,0,0,0-.15-1.63,2,2,0,0,0-.41-.77,4.24,4.24,0,0,0-.66-.57,3.3,3.3,0,0,0-.95.08,4,4,0,0,0-.87.34,4.46,4.46,0,0,0-1.31,1.08,8.23,8.23,0,0,0-1.08,1.59,11,11,0,0,0-.76,1.84,7.63,7.63,0,0,0-.33,1.8,4,4,0,0,0,.18,1.51,1.53,1.53,0,0,0,.81.94,2,2,0,0,0,1.63,0,4.12,4.12,0,0,0,1.76-1.3,2.55,2.55,0,0,1-.71-.38,1.61,1.61,0,0,1-.5-.6,1.21,1.21,0,0,1,0-1A3.07,3.07,0,0,1,230,23.51Z"/>
        <path class="cls-3" d="M233.26,27.29a31.46,31.46,0,0,0,3.08-4.22,27.59,27.59,0,0,0,2.32-4.83,2.33,2.33,0,0,1-.28-1.29,2.94,2.94,0,0,1,.32-1.12,1.59,1.59,0,0,1,.69-.67.9.9,0,0,1,1.23,1,4.64,4.64,0,0,1-.31,1.13.91.91,0,0,0,.47.11h.46a5.59,5.59,0,0,0,1.34-.25,2.87,2.87,0,0,1,.73-.77q.33-.21.81.18a3.14,3.14,0,0,1,1.28,1.64,1.56,1.56,0,0,1-.49,1.44c-.71.92-1.4,1.9-2.08,2.94a16,16,0,0,0-1.51,2.92,4,4,0,0,0-.31,1.58.89.89,0,0,0,.42.78,1.22,1.22,0,0,0,1,0,4.41,4.41,0,0,0,1.33-.87,13.9,13.9,0,0,0,1.71-1.9A17.43,17.43,0,0,0,247,22.55a.55.55,0,0,1,.63,0,.67.67,0,0,1,.26.49,30.45,30.45,0,0,1-1.55,2.63,14.42,14.42,0,0,1-1.89,2.3,6.64,6.64,0,0,1-1.82,1.33,5,5,0,0,1-1.77.49,2.9,2.9,0,0,1-1.51-.28,2.53,2.53,0,0,1-1.06-1,3.36,3.36,0,0,1-.42-1.63,5.71,5.71,0,0,1,.45-2.2,19.65,19.65,0,0,1,1.4-2.94,21.9,21.9,0,0,1,1.62-2.46,1.09,1.09,0,0,1-.31,0,6.15,6.15,0,0,1-.64-.12,6.72,6.72,0,0,1-.79-.27q-.3.81-.78,1.92c-.32.74-.69,1.5-1.12,2.28a21,21,0,0,1-1.08,1.85,8.87,8.87,0,0,1-1.1,1.4,4.45,4.45,0,0,1-1.14.84A1.82,1.82,0,0,1,233.26,27.29Z"/>
        <path class="cls-3" d="M247,22.55c.09-.15.29-.22.58-.22a1.15,1.15,0,0,1,.87.56,3.85,3.85,0,0,1,.72,1.57,7.63,7.63,0,0,1,.16,2,11.29,11.29,0,0,1-.33,2.29,14.45,14.45,0,0,1-.83,2.39,11.65,11.65,0,0,1-2.32,3.6,10.15,10.15,0,0,1-3.11,2.15,13.18,13.18,0,0,1-3.78,1,27.83,27.83,0,0,1-4.34.16q-7.4-.27-14.88-.47t-14.65-.23q-7.14,0-13.76.14t-12.26.58c-3.77.27-7.16.63-10.15,1.09a43.39,43.39,0,0,0-7.41,1.69l-1.16.38a.72.72,0,0,1-.55,0c-.09-.05-.1-.2,0-.43a10.76,10.76,0,0,1,.38-1,8.88,8.88,0,0,1,1.89-2.7,12.44,12.44,0,0,1,2.59-2,13.94,13.94,0,0,1,2.84-1.26,18.59,18.59,0,0,1,2.62-.66,57.68,57.68,0,0,1,6.41-.63q3.67-.18,7.93-.18t8.93.15q4.68.15,9.42.39c3.16.16,6.3.33,9.39.52l8.87.53c2.81.17,5.41.31,7.82.44s4.5.2,6.27.23q1.49,0,3.24,0a16.55,16.55,0,0,0,3.4-.4,10.18,10.18,0,0,0,3.07-1.25,6.15,6.15,0,0,0,2.25-2.52,11.52,11.52,0,0,0,.85-2.31,9.22,9.22,0,0,0,.31-2.17,5.23,5.23,0,0,0-.26-1.79,2.37,2.37,0,0,0-.87-1.18.32.32,0,0,1-.18-.23A.38.38,0,0,1,247,22.55Z"/>
      </g>
      <g>
        <path class="cls-4" d="M66.1,7.75a6,6,0,0,0,.49,1.72A8.21,8.21,0,0,0,67.5,11a4.44,4.44,0,0,0,1,1,7.72,7.72,0,0,0,1.23.74c.43-.56.89-1.12,1.38-1.67a16.63,16.63,0,0,1,1.6-1.54,11.63,11.63,0,0,1,1.82-1.23,7,7,0,0,1,2-.71,4,4,0,0,1,1.2-.06,3.32,3.32,0,0,1,1.14.31,2.6,2.6,0,0,1,.88.7,2.43,2.43,0,0,1,.48,1.12A3.3,3.3,0,0,1,80,11.54a6.38,6.38,0,0,1-1,1.61,8.54,8.54,0,0,1-3.5,2.44,9.6,9.6,0,0,1-4.23.61c-.45.83-.91,1.63-1.4,2.43s-1,1.58-1.54,2.36c-.37.52-.76,1.05-1.17,1.58s-.84,1.05-1.29,1.56a19.76,19.76,0,0,1,1.85,1.38c.57.5,1.16,1,1.76,1.5.78.69,1.58,1.34,2.39,1.95a13,13,0,0,0,2.65,1.5,9.41,9.41,0,0,0,3.18.79A7.59,7.59,0,0,0,81,30.76,4.46,4.46,0,0,1,79.15,34a5.49,5.49,0,0,1-3.87.76,8.25,8.25,0,0,1-2.17-.56,11.56,11.56,0,0,1-1.94-1,16.36,16.36,0,0,1-1.77-1.33,21,21,0,0,1-1.59-1.54c-.68-.71-1.34-1.42-2-2.13s-1.33-1.4-2-2.07a10.55,10.55,0,0,1-2.2,1.37,7.24,7.24,0,0,1-2.53.67,4.18,4.18,0,0,1-2.7-.6,2.85,2.85,0,0,1-1.21-1.64A2.8,2.8,0,0,1,55.4,24,3.22,3.22,0,0,1,57,22.45a6,6,0,0,1,2.73-.53,8.51,8.51,0,0,1,2.84.5,1.43,1.43,0,0,0,.36.14L63.4,22c.14-.18.28-.38.43-.59.71-1,1.39-2,2-3.05s1.34-2,2-3a8.67,8.67,0,0,1-1.53-.95,6.55,6.55,0,0,1-1.22-1.25,5.27,5.27,0,0,1-.75-1.5,3.58,3.58,0,0,1-.09-1.73,3.18,3.18,0,0,1,.37-1,2.64,2.64,0,0,1,.53-.66,2,2,0,0,1,.53-.33A.58.58,0,0,1,66.1,7.75ZM58.48,25.86A6.71,6.71,0,0,0,60,25.23a8.76,8.76,0,0,0,1.35-1,6.64,6.64,0,0,0-2-.74,2.94,2.94,0,0,0-1.92.23,1.82,1.82,0,0,0-.81.76.93.93,0,0,0-.08.8,1,1,0,0,0,.61.54A1.92,1.92,0,0,0,58.48,25.86ZM72.62,13.57a8.18,8.18,0,0,0,1.85,0A6,6,0,0,0,76.23,13a7.54,7.54,0,0,0,.8-.49,5.08,5.08,0,0,0,.81-.66,3.75,3.75,0,0,0,.65-.79,2,2,0,0,0,.29-.91,1.12,1.12,0,0,0-.22-.84,1.14,1.14,0,0,0-.76-.45A2,2,0,0,0,76.61,9a5.44,5.44,0,0,0-1,.61,6.91,6.91,0,0,0-1.64,1.73c-.43.66-.84,1.34-1.21,2.05Z"/>
        <path class="cls-4" d="M89.51,15.81c-.21.28-.46.65-.75,1.09s-.59.94-.91,1.46-.63,1.06-.93,1.62-.59,1.1-.83,1.6c-.5,1-.9,1.92-1.18,2.63s-.35,1.17-.22,1.37a.28.28,0,0,0,.29.13,1.81,1.81,0,0,0,.47-.1,1.92,1.92,0,0,0,.46-.21l.29-.18a5.07,5.07,0,0,0,1.09-.91,13.2,13.2,0,0,0,.9-1.08c.26-.35.51-.73.76-1.12s.46-.77.67-1.15a1.1,1.1,0,0,1,.57,0,.55.55,0,0,1,.32.45c-.26.49-.51,1-.75,1.43a12.29,12.29,0,0,1-.84,1.37c-.3.45-.61.88-.94,1.29s-.68.8-1,1.18a7,7,0,0,1-1.16.93,2.39,2.39,0,0,1-1.42.38,2.32,2.32,0,0,1-1.4-.45,2.47,2.47,0,0,1-.89-1.17,2.92,2.92,0,0,1-.2-.76,10.2,10.2,0,0,1-1,1.18,5,5,0,0,1-1.15.89,3.13,3.13,0,0,1-1.87.42,2.73,2.73,0,0,1-1.71-.75,3.17,3.17,0,0,1-1-1.53A6.39,6.39,0,0,1,75,24a8.06,8.06,0,0,1,.37-2.21,11.37,11.37,0,0,1,.88-2.1,12,12,0,0,1,1.26-1.89A13.77,13.77,0,0,1,79,16.23a6.41,6.41,0,0,1,1.77-1.17,4.49,4.49,0,0,1,2.06-.4,3.35,3.35,0,0,1,1.82.63,3.39,3.39,0,0,1,1.15,1.53,4.36,4.36,0,0,1,.77-.71,3.23,3.23,0,0,1,.91-.49,2.58,2.58,0,0,1,1.08-.17A1.49,1.49,0,0,1,89.51,15.81Zm-8.85,7.67a9.88,9.88,0,0,0,2.27-2.29,7.49,7.49,0,0,0,1.31-3,2.08,2.08,0,0,0,0-1.16,1,1,0,0,0-.86-.69,1.47,1.47,0,0,0-1,.23,5.9,5.9,0,0,0-.87.67A9.57,9.57,0,0,0,79.5,20a14.67,14.67,0,0,0-1.14,3.13c-.24,1.08-.19,1.8.16,2.14s.81.36,1.41.05A6.25,6.25,0,0,0,81,24.52c.34-.3.67-.61,1-.92a5.29,5.29,0,0,1-.8.09A.63.63,0,0,1,80.66,23.48Z"/>
        <path class="cls-4" d="M100.15,8.9a11.54,11.54,0,0,0-.79,1q-.49.69-1.11,1.62c-.4.63-.83,1.31-1.28,2.05s-.9,1.49-1.33,2.25a4.27,4.27,0,0,1,1-.71,3.54,3.54,0,0,1,1.13-.39,2.38,2.38,0,0,1,1.15.07,2.32,2.32,0,0,1,1,.67,3.25,3.25,0,0,1,.7,1.13,5.3,5.3,0,0,1,.28,1.3,6.9,6.9,0,0,1,0,1.36,11.91,11.91,0,0,1-.27,1.3A9.85,9.85,0,0,1,99.56,23a2.33,2.33,0,0,0,1-.1,3.84,3.84,0,0,0,.89-.43,3.8,3.8,0,0,0,.77-.68,3.61,3.61,0,0,0,.58-.84,1,1,0,0,1,.59-.07c.16.05.27.22.3.52a5.79,5.79,0,0,1-2.14,2.31,8.16,8.16,0,0,1-3.26,1.14l-.5.56a13.22,13.22,0,0,1-1.18,1.07,11.2,11.2,0,0,1-1.5,1.05,8.23,8.23,0,0,1-1.65.77,4.46,4.46,0,0,1-1.65.27,3.09,3.09,0,0,1-1.5-.45,3,3,0,0,1-1.15-1.4,4.21,4.21,0,0,1-.38-1.33,8,8,0,0,1,0-1.38A8.32,8.32,0,0,1,89,22.63c.13-.46.27-.9.42-1.33a11.3,11.3,0,0,1,.6-1.34c.29-.58.62-1.23,1-1.94s.77-1.45,1.21-2.22.88-1.52,1.31-2.23.84-1.36,1.23-1.94a16.76,16.76,0,0,1,1-1.39c.29-.37.57-.7.82-1a3.4,3.4,0,0,1,1-.71,2.08,2.08,0,0,1,.63-.15,3.31,3.31,0,0,1,.77,0,2.4,2.4,0,0,1,.7.16A.72.72,0,0,1,100.15,8.9Zm-4.68,13a4,4,0,0,1,1-.67,1.13,1.13,0,0,1,1,0,1.27,1.27,0,0,1,.31.28,16.17,16.17,0,0,0,.64-1.93,5.65,5.65,0,0,0,.2-2,1.19,1.19,0,0,0-.38-.91,1.13,1.13,0,0,0-.75-.22,2.27,2.27,0,0,0-.91.23,4.26,4.26,0,0,0-.84.51,8.65,8.65,0,0,0-2,2.13c-.19.43-.37.85-.53,1.26s-.34.83-.51,1.26l-.36.89a8.52,8.52,0,0,0-.33,1,5.51,5.51,0,0,0-.15,1,2.29,2.29,0,0,0,.14.95.83.83,0,0,0,.66.58,2,2,0,0,0,1-.11,6.19,6.19,0,0,0,1-.48,5.93,5.93,0,0,0,.74-.52l.34-.31a2,2,0,0,1-.62-.32,1.25,1.25,0,0,1-.42-.52,1.21,1.21,0,0,1,0-1A2.86,2.86,0,0,1,95.47,21.89Z"/>
        <path class="cls-4" d="M106.87,22.39a4.42,4.42,0,0,1-.63,0,6.07,6.07,0,0,1-.63-.07,5.15,5.15,0,0,0-.3,2.57,1.93,1.93,0,0,0,1,1.4,2.81,2.81,0,0,0,1.92.14,8.39,8.39,0,0,0,2.63-1.17,10.17,10.17,0,0,0,2.12-2A15.78,15.78,0,0,0,114.51,21a1.5,1.5,0,0,1,.57-.09q.27,0,.33.54a15.3,15.3,0,0,1-1.7,2.52,19.23,19.23,0,0,1-2.31,2.38,11,11,0,0,1-4,2.24,4,4,0,0,1-3.36-.33,5,5,0,0,1-2.16-4.32,7.9,7.9,0,0,1,.43-2.36,11,11,0,0,1,1.08-2.28,11.32,11.32,0,0,1,1.57-2,8.59,8.59,0,0,1,1.93-1.47,9.28,9.28,0,0,1,2.4-.86,5.15,5.15,0,0,1,2.53,0,2.11,2.11,0,0,1,1,.49,2.07,2.07,0,0,1,.57.81,2.35,2.35,0,0,1,.16,1,3.73,3.73,0,0,1-.23,1.07,4.87,4.87,0,0,1-1.52,2.12,8.31,8.31,0,0,1-2.26,1.35A8.19,8.19,0,0,1,106.87,22.39Zm2.4-5.37a12.29,12.29,0,0,0-1.89,2,13.83,13.83,0,0,0-1.44,2.41c.28-.08.6-.18,1-.31a11.34,11.34,0,0,0,1.63-.74A7,7,0,0,0,110,19.37a7.45,7.45,0,0,0,1-1.18,2.2,2.2,0,0,0,.42-1.48c0-.3-.09-.47-.28-.51a1.16,1.16,0,0,0-.64.09,3.09,3.09,0,0,0-.7.36A5.38,5.38,0,0,0,109.27,17Z"/>
        <path class="cls-4" d="M125.32,8.28a1.6,1.6,0,0,1,.47.08.52.52,0,0,1,.54-.09.89.89,0,0,1,.44.26,1.06,1.06,0,0,1,.24.56,2.6,2.6,0,0,1,0,.62,5,5,0,0,1-.51,1.93,19.31,19.31,0,0,1-1,1.76,17,17,0,0,1-1.24,1.88c-.46.6-.94,1.19-1.45,1.76s-1.18,1.3-1.8,1.92-1.28,1.22-2,1.78l-.59.45-.56.45a.55.55,0,0,0-.16.15.55.55,0,0,1-.2.15c-.09.27-.18.52-.27.76l-.26.76a6.93,6.93,0,0,0-.24,1.28,2.59,2.59,0,0,0,.12,1.21,1,1,0,0,0,.75.64,2.24,2.24,0,0,0,1.55-.42,8,8,0,0,0,1.22-.85,16.52,16.52,0,0,0,1.31-1.23,17.27,17.27,0,0,0,1.27-1.5,11.53,11.53,0,0,0,1-1.63.81.81,0,0,1,.58-.05c.15.05.26.22.31.5a19,19,0,0,1-1,1.68,19.45,19.45,0,0,1-1.24,1.71,18.69,18.69,0,0,1-1.49,1.6,11.18,11.18,0,0,1-1.72,1.34,5.2,5.2,0,0,1-2.13.81,3.24,3.24,0,0,1-1.9-.26,3.1,3.1,0,0,1-1.36-1.35,4.62,4.62,0,0,1-.46-2.42,9,9,0,0,1,.25-1.85,12.58,12.58,0,0,1,.58-1.8,15.85,15.85,0,0,1,.79-1.73q.45-.84.9-1.59c.67-1.14,1.38-2.27,2.11-3.4A22.3,22.3,0,0,1,120.78,11a15,15,0,0,1,1.16-1.1A7.47,7.47,0,0,1,123.25,9a5.19,5.19,0,0,1,1-.52A2.81,2.81,0,0,1,125.32,8.28ZM118.79,19.4c.43-.4.85-.81,1.26-1.24s.82-.86,1.21-1.31c.5-.6,1-1.22,1.45-1.85s.92-1.28,1.35-1.93a16.13,16.13,0,0,0,.85-1.42,9,9,0,0,0,.63-1.52c-.33.32-.68.63-1,.95a13.62,13.62,0,0,0-1,1c-.7.89-1.37,1.81-2,2.76s-1.22,1.9-1.8,2.89Z"/>
        <path class="cls-4" d="M155.14,10.18a2.56,2.56,0,0,1,.53,1.5,3.46,3.46,0,0,1-.34,1.5,5.4,5.4,0,0,1-.89,1.36,7.35,7.35,0,0,1-1.15,1.05A11.45,11.45,0,0,1,150.73,17a11.76,11.76,0,0,1-2.82.7,8.6,8.6,0,0,1-2.21-.07,6.83,6.83,0,0,1-2.07-.69l-.27.4-.26.42c-.19.31-.4.7-.65,1.16a15,15,0,0,0-.65,1.41,8.26,8.26,0,0,0-.45,1.47,2.83,2.83,0,0,0,0,1.36,1.55,1.55,0,0,0,.85,1,2.14,2.14,0,0,0,1.36.16,2.83,2.83,0,0,0,1.38-.67,5.56,5.56,0,0,0,1-1.15,9.42,9.42,0,0,1,1.15-1.73,5.83,5.83,0,0,1,1.57-1.4,3.28,3.28,0,0,1,.65-.32,3.2,3.2,0,0,1,.9-.21,3.57,3.57,0,0,1,1,0,2.16,2.16,0,0,1,.91.35,11.14,11.14,0,0,0-1.51,2.28c-.43.85-.87,1.7-1.32,2.54-.65,1.13-1.29,2.27-1.93,3.4a28.48,28.48,0,0,1-2.13,3.26c-.33.45-.7.9-1.09,1.34a9.66,9.66,0,0,1-1.26,1.22,8.54,8.54,0,0,1-1.44.95,4.7,4.7,0,0,1-1.64.52,5.73,5.73,0,0,1-1.55,0,6.43,6.43,0,0,1-1.53-.35,5.12,5.12,0,0,1-1.34-.73,4.86,4.86,0,0,1-1.07-1.1,4.26,4.26,0,0,1-.67-1.6,4.86,4.86,0,0,1,.55-3.37,4,4,0,0,1,1.16-1.31,3.91,3.91,0,0,1,1.47-.65,2.58,2.58,0,0,1,1.58.12c.17.08.26.15.28.21a.2.2,0,0,1-.06.2.93.93,0,0,1-.23.19,1.59,1.59,0,0,0-.27.21,4.68,4.68,0,0,0-1.1,1.75,5.51,5.51,0,0,0-.34,2,4,4,0,0,0,.38,1.74,1.9,1.9,0,0,0,1,1,2.17,2.17,0,0,0,1.49.14,3.59,3.59,0,0,0,1.32-.67A5.66,5.66,0,0,0,142,31.35a10.31,10.31,0,0,0,.78-1.29,22.36,22.36,0,0,0,1-2.26c.28-.77.58-1.54.9-2.33l-.65.45a3.09,3.09,0,0,1-.7.36,3.65,3.65,0,0,1-1.62.35,4,4,0,0,1-1.53-.32,3.73,3.73,0,0,1-1.27-.91A4.86,4.86,0,0,1,138,24a5.94,5.94,0,0,1-.42-2.54,7.8,7.8,0,0,1,.59-2.49,11.85,11.85,0,0,1,1.32-2.34,20.61,20.61,0,0,1,1.73-2.07,5,5,0,0,1-.65-2.11,3.82,3.82,0,0,1,.46-2.2c.07-.13.17-.28.29-.46a4,4,0,0,1,.41-.51,2.72,2.72,0,0,1,.46-.39.91.91,0,0,1,.49-.15q.19.9.42,1.8a5.47,5.47,0,0,0,.73,1.7,19.56,19.56,0,0,1,2.52-1.61,13.45,13.45,0,0,1,2.77-1.14c.47-.13,1-.25,1.54-.37a6.85,6.85,0,0,1,1.68-.17,4.81,4.81,0,0,1,1.58.28A2.7,2.7,0,0,1,155.14,10.18Zm-5.3,4c.34-.06.73-.15,1.18-.27a6.5,6.5,0,0,0,1.29-.5,4.33,4.33,0,0,0,1.08-.8,1.93,1.93,0,0,0,.54-1.18,1.06,1.06,0,0,0-.29-1,1.68,1.68,0,0,0-.88-.37,3.71,3.71,0,0,0-1.14.06,6.05,6.05,0,0,0-1,.29,7.48,7.48,0,0,0-1.51.79,15.14,15.14,0,0,0-1.34,1c-.32.26-.63.53-.94.82s-.6.59-.89.88a5.82,5.82,0,0,0,2,.35A12.21,12.21,0,0,0,149.84,14.19Z"/>
        <path class="cls-4" d="M157,22.39a4.33,4.33,0,0,1-.63,0c-.21,0-.42,0-.63-.07a5.24,5.24,0,0,0-.29,2.57,1.93,1.93,0,0,0,.95,1.4,2.81,2.81,0,0,0,1.92.14A8.49,8.49,0,0,0,161,25.28a10.17,10.17,0,0,0,2.12-2A15.78,15.78,0,0,0,164.66,21a1.47,1.47,0,0,1,.57-.09c.18,0,.29.19.32.54a15.2,15.2,0,0,1-1.69,2.52,19.23,19.23,0,0,1-2.31,2.38,11,11,0,0,1-4,2.24,4,4,0,0,1-3.36-.33,5,5,0,0,1-2.15-4.32,7.9,7.9,0,0,1,.43-2.36,11,11,0,0,1,1.08-2.28,11.32,11.32,0,0,1,1.57-2,8.37,8.37,0,0,1,1.93-1.47,9.33,9.33,0,0,1,2.39-.86,5.19,5.19,0,0,1,2.54,0,2.16,2.16,0,0,1,1,.49,2.07,2.07,0,0,1,.57.81,2.51,2.51,0,0,1,.16,1,3.73,3.73,0,0,1-.23,1.07A5,5,0,0,1,162,20.4a8.62,8.62,0,0,1-2.26,1.35A8.24,8.24,0,0,1,157,22.39ZM159.42,17a12.29,12.29,0,0,0-1.89,2,13.83,13.83,0,0,0-1.44,2.41c.28-.08.6-.18.95-.31a11.34,11.34,0,0,0,1.63-.74,7,7,0,0,0,1.42-1.05,7,7,0,0,0,1-1.18,2.2,2.2,0,0,0,.42-1.48c0-.3-.09-.47-.28-.51a1.16,1.16,0,0,0-.64.09,3.39,3.39,0,0,0-.71.36A5,5,0,0,0,159.42,17Z"/>
        <path class="cls-4" d="M178.82,21q.87-.36.9.45a28.61,28.61,0,0,1-1.82,3A16.62,16.62,0,0,1,175.69,27a8,8,0,0,1-1.23.94,5.4,5.4,0,0,1-1.43.62,3.13,3.13,0,0,1-1.46,0,2.32,2.32,0,0,1-1.31-.85,2.37,2.37,0,0,1-.62-1.29,5.1,5.1,0,0,1,0-1.51,9.18,9.18,0,0,1,.4-1.54c.17-.5.35-1,.51-1.4a18.2,18.2,0,0,1,1.31-2.42,25.85,25.85,0,0,0,1.35-2.42c-.54.43-1.12.93-1.75,1.51a18.13,18.13,0,0,0-1.58,1.65c-.56.67-1.09,1.36-1.59,2.06s-1,1.41-1.49,2.14c-.24.37-.47.74-.7,1.11s-.44.73-.64,1.1l-.42.63a.74.74,0,0,1-.7.35,1.29,1.29,0,0,1-.67-.19,2.59,2.59,0,0,1-.61-.48,3,3,0,0,1-.42-.6.9.9,0,0,1-.09-.58,13.91,13.91,0,0,1,1.52-3.93c.72-1.26,1.45-2.48,2.2-3.65.32-.49.62-1,.91-1.52a14.31,14.31,0,0,1,1-1.51,1.24,1.24,0,0,1,.65-.5A1.45,1.45,0,0,1,170,15a2.6,2.6,0,0,1,.52.38.6.6,0,0,1,.18.44,1.46,1.46,0,0,1-.21.66,9.41,9.41,0,0,1-.63,1c-.26.36-.54.79-.83,1.29s-.53,1-.74,1.37l1.08-1.2c.42-.47.86-.94,1.33-1.4a18.51,18.51,0,0,1,1.41-1.29,7.8,7.8,0,0,1,1.33-.9A3.18,3.18,0,0,1,177,16c.15.15.22.28.2.38a1.55,1.55,0,0,1-.17.43,10.82,10.82,0,0,1-.59,1.18c-.22.41-.45.81-.7,1.22s-.47.81-.7,1.24c-.31.58-.65,1.19-1,1.84a19.8,19.8,0,0,0-.94,1.91,2.7,2.7,0,0,0-.23,1.68.68.68,0,0,0,.72.52,2.81,2.81,0,0,0,1.36-.54,8,8,0,0,0,1.65-1.54c.4-.49.78-1,1.15-1.54A17.86,17.86,0,0,0,178.82,21Z"/>
        <path class="cls-4" d="M182.91,22.39a4.33,4.33,0,0,1-.63,0c-.21,0-.42,0-.63-.07a5.24,5.24,0,0,0-.29,2.57,1.93,1.93,0,0,0,.95,1.4,2.8,2.8,0,0,0,1.92.14,8.49,8.49,0,0,0,2.63-1.17,10.12,10.12,0,0,0,2.11-2A15.12,15.12,0,0,0,190.56,21a1.47,1.47,0,0,1,.57-.09c.18,0,.29.19.32.54a15.2,15.2,0,0,1-1.69,2.52,19.23,19.23,0,0,1-2.31,2.38,11,11,0,0,1-4,2.24,4,4,0,0,1-3.36-.33,5,5,0,0,1-1.64-1.89A4.93,4.93,0,0,1,178,23.9a7.6,7.6,0,0,1,.43-2.36,11,11,0,0,1,1.08-2.28,11.32,11.32,0,0,1,1.57-2A8.37,8.37,0,0,1,183,15.78a9.33,9.33,0,0,1,2.39-.86,5.19,5.19,0,0,1,2.54,0,2.16,2.16,0,0,1,1,.49,2.07,2.07,0,0,1,.57.81,2.34,2.34,0,0,1,.15,1,3.41,3.41,0,0,1-.22,1.07,5,5,0,0,1-1.53,2.12,8.41,8.41,0,0,1-2.25,1.35A8.24,8.24,0,0,1,182.91,22.39ZM185.32,17a12.29,12.29,0,0,0-1.89,2A13.83,13.83,0,0,0,182,21.47c.28-.08.6-.18.95-.31a10.75,10.75,0,0,0,1.62-.74A6.76,6.76,0,0,0,186,19.37a7,7,0,0,0,1-1.18,2.2,2.2,0,0,0,.42-1.48c0-.3-.1-.47-.28-.51a1.2,1.2,0,0,0-.65.09,3.57,3.57,0,0,0-.7.36A5,5,0,0,0,185.32,17Z"/>
        <path class="cls-4" d="M187.08,25.7a30.61,30.61,0,0,0,3.08-4.22,27.63,27.63,0,0,0,2.33-4.83,2.25,2.25,0,0,1-.28-1.29,2.77,2.77,0,0,1,.32-1.12,1.59,1.59,0,0,1,.69-.67.81.81,0,0,1,.84.09.84.84,0,0,1,.39.88,5.13,5.13,0,0,1-.31,1.13.85.85,0,0,0,.46.11h.46a5.58,5.58,0,0,0,1.35-.25,2.73,2.73,0,0,1,.73-.77q.33-.21.81.18a3.11,3.11,0,0,1,1.27,1.64,1.56,1.56,0,0,1-.49,1.44q-1.06,1.38-2.07,2.94a15.43,15.43,0,0,0-1.51,2.92,3.78,3.78,0,0,0-.31,1.58.89.89,0,0,0,.42.78,1.22,1.22,0,0,0,1,0,4.53,4.53,0,0,0,1.33-.87,13.27,13.27,0,0,0,1.7-1.9A17.43,17.43,0,0,0,200.83,21a.55.55,0,0,1,.63,0,.68.68,0,0,1,.27.49A30.46,30.46,0,0,1,200.17,24a14.42,14.42,0,0,1-1.89,2.3,6.35,6.35,0,0,1-1.82,1.33,4.92,4.92,0,0,1-1.76.49,2.9,2.9,0,0,1-1.51-.28,2.55,2.55,0,0,1-1.07-1,3.36,3.36,0,0,1-.42-1.63,5.71,5.71,0,0,1,.45-2.2,19.65,19.65,0,0,1,1.4-2.94,20.56,20.56,0,0,1,1.63-2.46,1,1,0,0,1-.31,0,6.26,6.26,0,0,1-.65-.12,6,6,0,0,1-.78-.27q-.31.81-.78,1.92c-.32.74-.7,1.5-1.12,2.28s-.72,1.29-1.08,1.85a8.89,8.89,0,0,1-1.11,1.4,4.41,4.41,0,0,1-1.13.84A1.84,1.84,0,0,1,187.08,25.7Z"/>
        <path class="cls-4" d="M214.66,15.81c-.2.28-.45.65-.74,1.09s-.59.94-.91,1.46-.63,1.06-.94,1.62-.58,1.1-.82,1.6c-.51,1-.9,1.92-1.18,2.63s-.35,1.17-.22,1.37a.27.27,0,0,0,.29.13,1.74,1.74,0,0,0,.46-.1,2,2,0,0,0,.47-.21l.29-.18a5.33,5.33,0,0,0,1.09-.91,13.2,13.2,0,0,0,.9-1.08c.26-.35.51-.73.75-1.12s.47-.77.68-1.15a1.1,1.1,0,0,1,.57,0,.55.55,0,0,1,.32.45c-.26.49-.51,1-.75,1.43a14,14,0,0,1-.84,1.37c-.3.45-.62.88-.94,1.29s-.68.8-1,1.18a7.47,7.47,0,0,1-1.17.93,2.38,2.38,0,0,1-1.41.38,2.32,2.32,0,0,1-1.4-.45,2.56,2.56,0,0,1-.9-1.17,3.38,3.38,0,0,1-.19-.76,11.38,11.38,0,0,1-1,1.18,5,5,0,0,1-1.15.89,3.14,3.14,0,0,1-1.88.42,2.73,2.73,0,0,1-1.7-.75,3.27,3.27,0,0,1-1-1.53,6.38,6.38,0,0,1-.25-1.78,8.06,8.06,0,0,1,.37-2.21,10.73,10.73,0,0,1,.88-2.1,12,12,0,0,1,1.26-1.89,13.69,13.69,0,0,1,1.52-1.61,6.61,6.61,0,0,1,1.78-1.17,4.46,4.46,0,0,1,2.06-.4,3.35,3.35,0,0,1,1.82.63A3.46,3.46,0,0,1,211,16.82a4.36,4.36,0,0,1,.77-.71,3.23,3.23,0,0,1,.91-.49,2.54,2.54,0,0,1,1.07-.17A1.45,1.45,0,0,1,214.66,15.81Zm-8.84,7.67a9.65,9.65,0,0,0,2.26-2.29,7.66,7.66,0,0,0,1.32-3,2.28,2.28,0,0,0,0-1.16,1,1,0,0,0-.87-.69,1.44,1.44,0,0,0-1,.23,5.9,5.9,0,0,0-.87.67A9.81,9.81,0,0,0,204.65,20a15.2,15.2,0,0,0-1.13,3.13c-.24,1.08-.19,1.8.15,2.14s.82.36,1.42.05a5.83,5.83,0,0,0,1.1-.76c.35-.3.68-.61,1-.92a5.29,5.29,0,0,1-.8.09A.63.63,0,0,1,205.82,23.48Z"/>
        <path class="cls-4" d="M223.23,10.18a.93.93,0,0,1,0,.66c-.07.18-.17.38-.28.6l-.33.68a6,6,0,0,1,1,.16,2.33,2.33,0,0,1,1,.58,1.89,1.89,0,0,1,.52,1,1,1,0,0,1,0,.54.65.65,0,0,1-.43.16l-.84.14c-.34.06-.67.11-1,.14l-.92.12-.59.08h-.06l-.64,1.34-2.38,4.79-.42.83c-.21.4-.42.84-.65,1.33a5.92,5.92,0,0,0-.65,2.2c0,.47.17.74.49.79a1.92,1.92,0,0,0,1.28-.43A9.14,9.14,0,0,0,220,24.32a14.38,14.38,0,0,0,1.18-1.52A21.07,21.07,0,0,0,222.28,21c.56-.29.87-.15.92.45-.3.56-.61,1.12-.95,1.68a17.24,17.24,0,0,1-1.1,1.63c-.41.52-.83,1-1.28,1.49a8.5,8.5,0,0,1-1.45,1.25,3.94,3.94,0,0,1-1.53.67,3.57,3.57,0,0,1-1.72,0,1.88,1.88,0,0,1-1-.61,2.53,2.53,0,0,1-.56-1.09,4.17,4.17,0,0,1-.12-1.32,6.15,6.15,0,0,1,.22-1.34,13.39,13.39,0,0,1,.43-1.31c.17-.42.34-.82.51-1.21a29.48,29.48,0,0,1,1.44-2.93l1.61-2.84-1.54.18c-.45,0-.75.07-.9.07a1.39,1.39,0,0,1-.12-.66,2.36,2.36,0,0,1,.14-.74,2.61,2.61,0,0,1,.33-.67,1.89,1.89,0,0,1,.44-.48,3.68,3.68,0,0,1,1.41-.67A13.08,13.08,0,0,1,219,12.2h.28l.28,0,.81-1.54a6.24,6.24,0,0,0,.35-.68,1.51,1.51,0,0,1,.46-.6.74.74,0,0,1,.58-.12,2.74,2.74,0,0,1,.67.21,2.51,2.51,0,0,1,.56.38A1.07,1.07,0,0,1,223.23,10.18Z"/>
        <path class="cls-4" d="M230.12,15.7a1.85,1.85,0,0,1,.9-.06,2.18,2.18,0,0,1,1.31.84,4,4,0,0,1,.7,1.43,6,6,0,0,1,0,2.54,11.46,11.46,0,0,1-.78,2.47,1.79,1.79,0,0,0,1.75-.19A4.78,4.78,0,0,0,235.52,21q.81-.36.9.45a7.36,7.36,0,0,1-2.23,2.65,6.42,6.42,0,0,1-3.26,1.08c-.3.39-.62.78-1,1.16a8.11,8.11,0,0,1-1.1,1,5.77,5.77,0,0,1-1.27.74,4.47,4.47,0,0,1-1.45.35,3.72,3.72,0,0,1-1.68-.26,3.92,3.92,0,0,1-1.31-.93,4.77,4.77,0,0,1-.9-1.38,5.87,5.87,0,0,1-.42-1.66,7.69,7.69,0,0,1,.09-2,9.5,9.5,0,0,1,1.48-3.74A8.78,8.78,0,0,1,224.66,17a7.33,7.33,0,0,1,1.55-1.09,4.62,4.62,0,0,1,1.81-.53,3.88,3.88,0,0,1,1,0,3.43,3.43,0,0,1,1,.29Zm-1.34,6.22a4,4,0,0,1,1-.68,1.11,1.11,0,0,1,1,0,1.07,1.07,0,0,1,.34.3,6.21,6.21,0,0,0,.26-1.56,5.64,5.64,0,0,0-.15-1.63,1.89,1.89,0,0,0-.41-.77,3.73,3.73,0,0,0-.65-.57,3.34,3.34,0,0,0-1,.08,4,4,0,0,0-.86.34A4.37,4.37,0,0,0,227,18.49,8.23,8.23,0,0,0,226,20.08a10.15,10.15,0,0,0-.75,1.84,7.19,7.19,0,0,0-.34,1.8,4,4,0,0,0,.18,1.51,1.53,1.53,0,0,0,.81.94,2,2,0,0,0,1.63,0,4.12,4.12,0,0,0,1.76-1.3,2.55,2.55,0,0,1-.71-.38,1.43,1.43,0,0,1-.49-.6,1.18,1.18,0,0,1,0-1A3,3,0,0,1,228.78,21.92Z"/>
        <path class="cls-4" d="M232.05,25.7a30.61,30.61,0,0,0,3.08-4.22,26.9,26.9,0,0,0,2.32-4.83,2.42,2.42,0,0,1-.28-1.29,2.77,2.77,0,0,1,.33-1.12,1.52,1.52,0,0,1,.68-.67.9.9,0,0,1,1.23,1,4.61,4.61,0,0,1-.3,1.13.85.85,0,0,0,.46.11H240a5.5,5.5,0,0,0,1.34-.25,3,3,0,0,1,.73-.77q.35-.21.81.18a3.08,3.08,0,0,1,1.28,1.64A1.56,1.56,0,0,1,243.7,18q-1.06,1.38-2.07,2.94a15.52,15.52,0,0,0-1.52,2.92,3.75,3.75,0,0,0-.3,1.58.85.85,0,0,0,.42.78,1.2,1.2,0,0,0,1,0,4.41,4.41,0,0,0,1.33-.87,13.9,13.9,0,0,0,1.71-1.9A17.43,17.43,0,0,0,245.8,21a.55.55,0,0,1,.63,0,.64.64,0,0,1,.26.49A30.45,30.45,0,0,1,245.14,24a14.42,14.42,0,0,1-1.89,2.3,6.49,6.49,0,0,1-1.82,1.33,5,5,0,0,1-1.76.49,2.94,2.94,0,0,1-1.52-.28,2.59,2.59,0,0,1-1.06-1,3.36,3.36,0,0,1-.42-1.63,5.71,5.71,0,0,1,.45-2.2,19.65,19.65,0,0,1,1.4-2.94,21.9,21.9,0,0,1,1.62-2.46,1.09,1.09,0,0,1-.31,0c-.16,0-.38-.06-.64-.12a6,6,0,0,1-.78-.27c-.21.54-.47,1.18-.79,1.92s-.69,1.5-1.12,2.28a21,21,0,0,1-1.08,1.85,8.87,8.87,0,0,1-1.1,1.4,4.28,4.28,0,0,1-1.14.84A1.82,1.82,0,0,1,232.05,25.7Z"/>
        <path class="cls-4" d="M245.8,21c.09-.15.29-.22.59-.22a1.15,1.15,0,0,1,.86.56,3.85,3.85,0,0,1,.72,1.57,8.06,8.06,0,0,1,.17,2,11.34,11.34,0,0,1-.34,2.29,14.45,14.45,0,0,1-.83,2.39,11.65,11.65,0,0,1-2.32,3.6,10,10,0,0,1-3.11,2.15,13.09,13.09,0,0,1-3.78,1,27.83,27.83,0,0,1-4.34.16Q226,36.23,218.54,36T203.9,35.8q-7.16,0-13.77.14t-12.26.58q-5.66.4-10.15,1.09a43.61,43.61,0,0,0-7.41,1.69l-1.16.38c-.27.09-.45.1-.54,0s-.11-.2-.05-.43.2-.57.38-1a8.88,8.88,0,0,1,1.89-2.7,12.71,12.71,0,0,1,2.59-2,14.18,14.18,0,0,1,2.84-1.26,18.94,18.94,0,0,1,2.62-.66,57.68,57.68,0,0,1,6.41-.63q3.68-.18,7.93-.18c2.84,0,5.81.05,8.93.15s6.26.23,9.42.39,6.3.33,9.4.52l8.86.53c2.81.17,5.42.31,7.82.44s4.5.2,6.28.23c1,0,2.06,0,3.23,0a16.55,16.55,0,0,0,3.4-.4,10.08,10.08,0,0,0,3.07-1.25A6.15,6.15,0,0,0,245.88,29a12.21,12.21,0,0,0,.86-2.31,9.73,9.73,0,0,0,.3-2.17,5.23,5.23,0,0,0-.26-1.79,2.37,2.37,0,0,0-.87-1.18.37.37,0,0,1-.11-.56Z"/>
      </g>
      <g>
        <path class="cls-5" d="M64.8,6.88a6.89,6.89,0,0,0,.49,1.72,9,9,0,0,0,.91,1.52,4.49,4.49,0,0,0,1,1,7.72,7.72,0,0,0,1.23.74c.43-.56.89-1.12,1.39-1.67a16.52,16.52,0,0,1,1.59-1.54,10.65,10.65,0,0,1,1.83-1.23,6.72,6.72,0,0,1,2-.71,4,4,0,0,1,1.2-.06A3.21,3.21,0,0,1,77.61,7a2.64,2.64,0,0,1,.89.7A2.33,2.33,0,0,1,79,8.81a3.29,3.29,0,0,1-.26,1.86,7.2,7.2,0,0,1-1,1.61,8.71,8.71,0,0,1-3.5,2.44,9.79,9.79,0,0,1-4.23.61c-.45.82-.92,1.63-1.4,2.42s-1,1.59-1.54,2.37c-.38.52-.77,1.05-1.18,1.58s-.84,1.05-1.29,1.56a18.53,18.53,0,0,1,1.85,1.38l1.76,1.5q1.19,1,2.4,1.95a12.22,12.22,0,0,0,2.64,1.49,9.19,9.19,0,0,0,3.18.8,7.57,7.57,0,0,0,3.32-.49,4.4,4.4,0,0,1-1.82,3.22,5.52,5.52,0,0,1-3.86.76,8.54,8.54,0,0,1-2.17-.56,12.06,12.06,0,0,1-1.95-1A17.65,17.65,0,0,1,68.11,31c-.56-.49-1.09-1-1.6-1.54l-2-2.13q-1-1.07-2-2.07a11.27,11.27,0,0,1-2.2,1.37,7.29,7.29,0,0,1-2.53.67,4.23,4.23,0,0,1-2.71-.6A2.91,2.91,0,0,1,53.87,25a2.75,2.75,0,0,1,.24-1.93,3.16,3.16,0,0,1,1.62-1.51A6.14,6.14,0,0,1,58.46,21a8.68,8.68,0,0,1,2.84.51,1.77,1.77,0,0,0,.37.14l.43-.59.44-.59c.7-1,1.39-2,2-3.05s1.33-2,2-3.05a8.24,8.24,0,0,1-1.52-.95,6.26,6.26,0,0,1-1.22-1.25,5.05,5.05,0,0,1-.76-1.5A3.71,3.71,0,0,1,63,9a3.18,3.18,0,0,1,.36-1,2.65,2.65,0,0,1,.54-.66A1.64,1.64,0,0,1,64.47,7,.55.55,0,0,1,64.8,6.88ZM57.19,25a6.46,6.46,0,0,0,1.55-.63,8.38,8.38,0,0,0,1.36-1,6.78,6.78,0,0,0-2-.75,2.86,2.86,0,0,0-1.92.24,1.77,1.77,0,0,0-.81.76,1,1,0,0,0-.09.8,1,1,0,0,0,.62.54A2.05,2.05,0,0,0,57.19,25ZM71.33,12.7a8.09,8.09,0,0,0,1.84,0,6.34,6.34,0,0,0,1.77-.52,8.71,8.71,0,0,0,.8-.49,6.48,6.48,0,0,0,.81-.66,3.75,3.75,0,0,0,.64-.8,1.93,1.93,0,0,0,.3-.91,1.15,1.15,0,0,0-1-1.28,2,2,0,0,0-1.19.14,4.51,4.51,0,0,0-1,.61,6.86,6.86,0,0,0-1.64,1.72,23.72,23.72,0,0,0-1.22,2.06Z"/>
        <path class="cls-5" d="M88.21,14.94c-.21.28-.45.64-.74,1.09s-.59.94-.91,1.46-.63,1.06-.94,1.62-.58,1.09-.82,1.6c-.51,1-.9,1.92-1.18,2.63s-.36,1.17-.23,1.37a.29.29,0,0,0,.3.13,1.74,1.74,0,0,0,.46-.1,2.78,2.78,0,0,0,.46-.21l.3-.18A5.67,5.67,0,0,0,86,23.44a12.73,12.73,0,0,0,.89-1.08,12.92,12.92,0,0,0,.76-1.12c.24-.39.47-.77.67-1.15a1.13,1.13,0,0,1,.58,0,.57.57,0,0,1,.32.45L88.46,22a11.73,11.73,0,0,1-.84,1.37c-.3.45-.61.88-.94,1.29a11.56,11.56,0,0,1-1.05,1.17,6.54,6.54,0,0,1-1.16.94,2.38,2.38,0,0,1-1.41.38,2.32,2.32,0,0,1-1.4-.45,2.61,2.61,0,0,1-.9-1.17,2.92,2.92,0,0,1-.19-.76,11.38,11.38,0,0,1-.95,1.18,5,5,0,0,1-1.15.89,3.16,3.16,0,0,1-1.88.42,2.84,2.84,0,0,1-1.71-.75A3.33,3.33,0,0,1,73.93,25a6.38,6.38,0,0,1-.25-1.78A8.43,8.43,0,0,1,74,21a12.1,12.1,0,0,1,.88-2.1A13.5,13.5,0,0,1,76.18,17a14.65,14.65,0,0,1,1.53-1.61,6.73,6.73,0,0,1,1.78-1.18,4.46,4.46,0,0,1,2.06-.39,3.38,3.38,0,0,1,1.82.63A3.26,3.26,0,0,1,84.51,16a5.37,5.37,0,0,1,.78-.72,3.64,3.64,0,0,1,.91-.49,2.53,2.53,0,0,1,1.07-.16A1.4,1.4,0,0,1,88.21,14.94Zm-8.85,7.67a9.88,9.88,0,0,0,2.27-2.29,7.72,7.72,0,0,0,1.32-3,2.28,2.28,0,0,0,0-1.16,1,1,0,0,0-.87-.69,1.47,1.47,0,0,0-1,.22,6.43,6.43,0,0,0-.86.68,9.7,9.7,0,0,0-2,2.68,15.5,15.5,0,0,0-1.13,3.14c-.25,1.08-.19,1.8.15,2.14s.82.36,1.41,0a5.16,5.16,0,0,0,1.11-.75c.35-.3.68-.61,1-.93a4.38,4.38,0,0,1-.8.1A.65.65,0,0,1,79.36,22.61Z"/>
        <path class="cls-5" d="M98.85,8a12,12,0,0,0-.78,1q-.51.69-1.11,1.62l-1.29,2c-.46.73-.9,1.48-1.33,2.25a4.48,4.48,0,0,1,1-.71,3.83,3.83,0,0,1,1.13-.4,2.63,2.63,0,0,1,1.15.07,2.44,2.44,0,0,1,1.05.68,3.1,3.1,0,0,1,.7,1.13,4.79,4.79,0,0,1,.28,1.3,5.65,5.65,0,0,1,0,1.36,10,10,0,0,1-.27,1.3,9.5,9.5,0,0,1-1.09,2.47,2.49,2.49,0,0,0,1-.1,3.42,3.42,0,0,0,.9-.44,4,4,0,0,0,.77-.67,3.89,3.89,0,0,0,.57-.84,1,1,0,0,1,.59-.07c.17.05.27.22.31.52a5.86,5.86,0,0,1-2.14,2.31A8,8,0,0,1,97,24l-.5.56a11.85,11.85,0,0,1-1.18,1.08,12.41,12.41,0,0,1-1.49,1.05,8.57,8.57,0,0,1-1.66.77,4.46,4.46,0,0,1-1.65.27,3.12,3.12,0,0,1-1.5-.45,3.09,3.09,0,0,1-1.14-1.4,3.75,3.75,0,0,1-.38-1.33,6.46,6.46,0,0,1,0-1.39,7.45,7.45,0,0,1,.26-1.38c.14-.46.27-.9.42-1.33s.32-.77.61-1.35.62-1.22,1-1.93.78-1.45,1.22-2.22.87-1.52,1.3-2.23.84-1.36,1.23-1.95a16.34,16.34,0,0,1,1-1.38c.3-.38.57-.7.83-1a3.23,3.23,0,0,1,1-.71A2.07,2.07,0,0,1,97,7.53a5,5,0,0,1,.77,0,2.87,2.87,0,0,1,.7.17A.72.72,0,0,1,98.85,8ZM94.17,21a4.33,4.33,0,0,1,1-.68,1.16,1.16,0,0,1,1,0,1.5,1.5,0,0,1,.31.28,18.38,18.38,0,0,0,.64-1.94,5.83,5.83,0,0,0,.2-2,1.23,1.23,0,0,0-.38-.91,1.18,1.18,0,0,0-.76-.23,2.33,2.33,0,0,0-.91.24,4.26,4.26,0,0,0-.84.51,8.81,8.81,0,0,0-2,2.12L92,19.64c-.17.41-.34.83-.5,1.26s-.24.58-.37.9a6.88,6.88,0,0,0-.32,1,5.37,5.37,0,0,0-.15,1,2.16,2.16,0,0,0,.14.95.83.83,0,0,0,.65.58,2.12,2.12,0,0,0,1-.12,5.45,5.45,0,0,0,1-.47,4.72,4.72,0,0,0,.74-.52l.34-.31a2.15,2.15,0,0,1-.62-.32,1.42,1.42,0,0,1-.42-.52,1.21,1.21,0,0,1,0-1A2.9,2.9,0,0,1,94.17,21Z"/>
        <path class="cls-5" d="M105.57,21.52a4.37,4.37,0,0,1-.63,0,4.5,4.5,0,0,1-.63-.07A5.17,5.17,0,0,0,104,24a1.9,1.9,0,0,0,1,1.4,2.8,2.8,0,0,0,1.92.14,8.31,8.31,0,0,0,2.63-1.18,10.07,10.07,0,0,0,2.11-2,14.37,14.37,0,0,0,1.58-2.34,1.58,1.58,0,0,1,.58-.1c.18,0,.28.2.32.55a15.2,15.2,0,0,1-1.69,2.52,19.23,19.23,0,0,1-2.31,2.38,11,11,0,0,1-4,2.24,4,4,0,0,1-3.36-.34,4.76,4.76,0,0,1-1.64-1.89,5,5,0,0,1-.52-2.42,7.92,7.92,0,0,1,.44-2.36,11.13,11.13,0,0,1,1.08-2.29,11.57,11.57,0,0,1,1.56-2,8.64,8.64,0,0,1,1.94-1.47A9.73,9.73,0,0,1,108,14a5.4,5.4,0,0,1,2.53,0,2.27,2.27,0,0,1,1,.49,2.09,2.09,0,0,1,.58.82,2.32,2.32,0,0,1,.15,1A3.65,3.65,0,0,1,112,17.4a5.07,5.07,0,0,1-1.53,2.13,8.41,8.41,0,0,1-2.25,1.35A8.5,8.5,0,0,1,105.57,21.52ZM108,16.14a12.77,12.77,0,0,0-1.89,2.05,13.47,13.47,0,0,0-1.44,2.41c.28-.08.59-.18.95-.31a13.18,13.18,0,0,0,1.62-.74,6.76,6.76,0,0,0,1.43-1.05,7.5,7.5,0,0,0,1-1.18,2.31,2.31,0,0,0,.42-1.48c0-.3-.1-.47-.28-.51a1.11,1.11,0,0,0-.65.09,3.57,3.57,0,0,0-.7.36C108.26,15.93,108.09,16.05,108,16.14Z"/>
        <path class="cls-5" d="M124,7.41a1.72,1.72,0,0,1,.48.08.53.53,0,0,1,.53-.1,1,1,0,0,1,.45.27,1.06,1.06,0,0,1,.24.56,3.25,3.25,0,0,1,0,.62,5.1,5.1,0,0,1-.52,1.93c-.31.63-.63,1.22-1,1.76A17,17,0,0,1,123,14.41c-.46.6-.94,1.18-1.44,1.76s-1.18,1.29-1.81,1.92-1.27,1.22-1.94,1.78c-.21.15-.41.3-.59.45l-.56.44a.83.83,0,0,0-.17.16.75.75,0,0,1-.2.15c-.09.26-.18.51-.26.76s-.17.49-.27.75a8.21,8.21,0,0,0-.24,1.29,2.72,2.72,0,0,0,.13,1.21,1,1,0,0,0,.74.64A2.38,2.38,0,0,0,118,25.3a8.8,8.8,0,0,0,1.21-.85,16.67,16.67,0,0,0,1.32-1.24,14.33,14.33,0,0,0,1.26-1.49,12.79,12.79,0,0,0,1-1.63.84.84,0,0,1,.59-.05c.15.05.25.22.31.5-.28.54-.61,1.1-1,1.68a19.59,19.59,0,0,1-1.25,1.71A17.09,17.09,0,0,1,120,25.52a11.11,11.11,0,0,1-1.72,1.35,5.2,5.2,0,0,1-2.13.81,3.35,3.35,0,0,1-1.91-.27,3,3,0,0,1-1.35-1.34,4.64,4.64,0,0,1-.47-2.42,9.06,9.06,0,0,1,.26-1.85A14.09,14.09,0,0,1,113.2,20a16.69,16.69,0,0,1,.8-1.72c.3-.56.59-1.09.89-1.59.68-1.14,1.38-2.28,2.12-3.41a21,21,0,0,1,2.48-3.12,15,15,0,0,1,1.16-1.1,7.39,7.39,0,0,1,1.3-.91,5.86,5.86,0,0,1,1-.52A2.88,2.88,0,0,1,124,7.41ZM117.5,18.52q.65-.59,1.26-1.23c.41-.43.81-.87,1.2-1.31.51-.6,1-1.22,1.46-1.85s.91-1.28,1.34-1.93a16.27,16.27,0,0,0,.86-1.42,9,9,0,0,0,.63-1.52l-1,1c-.34.32-.67.65-1,1-.71.89-1.38,1.81-2,2.75s-1.23,1.91-1.81,2.9Z"/>
        <path class="cls-5" d="M153.84,9.31a2.5,2.5,0,0,1,.53,1.5,3.63,3.63,0,0,1-.33,1.5,5.94,5.94,0,0,1-.9,1.36A6.55,6.55,0,0,1,152,14.72a11.42,11.42,0,0,1-2.56,1.37,11.69,11.69,0,0,1-2.81.7,8.57,8.57,0,0,1-2.21-.07,7,7,0,0,1-2.08-.69l-.26.39c-.09.13-.17.27-.27.42-.18.32-.4.71-.64,1.17a15.2,15.2,0,0,0-.66,1.41,8.26,8.26,0,0,0-.45,1.47,2.83,2.83,0,0,0,0,1.36,1.5,1.5,0,0,0,.85,1,2.13,2.13,0,0,0,1.36.17,2.89,2.89,0,0,0,1.37-.67,5.89,5.89,0,0,0,1-1.15,9.51,9.51,0,0,1,1.14-1.73,6,6,0,0,1,1.57-1.4,3.37,3.37,0,0,1,.66-.33A4,4,0,0,1,149,18a4,4,0,0,1,1,0,2.08,2.08,0,0,1,.91.35,11.18,11.18,0,0,0-1.52,2.28c-.43.85-.86,1.69-1.31,2.53-.66,1.14-1.3,2.28-1.93,3.41A32.54,32.54,0,0,1,144,29.81c-.34.45-.7.89-1.09,1.34a11.1,11.1,0,0,1-1.26,1.22,8.84,8.84,0,0,1-1.45,1,4.93,4.93,0,0,1-1.63.52,6.76,6.76,0,0,1-1.56,0,6.35,6.35,0,0,1-1.52-.35,5.18,5.18,0,0,1-1.35-.73A4.86,4.86,0,0,1,133,31.68a4,4,0,0,1-.67-1.59,4.63,4.63,0,0,1,0-1.74,4.86,4.86,0,0,1,.57-1.64,4.23,4.23,0,0,1,1.16-1.3,3.93,3.93,0,0,1,1.47-.66,2.62,2.62,0,0,1,1.59.13c.16.07.26.14.28.21a.23.23,0,0,1-.06.2,1.26,1.26,0,0,1-.24.19,2,2,0,0,0-.26.21,4.58,4.58,0,0,0-1.11,1.75,5.7,5.7,0,0,0-.34,2,4.23,4.23,0,0,0,.38,1.74,1.9,1.9,0,0,0,1,1,2.26,2.26,0,0,0,1.5.14,3.63,3.63,0,0,0,1.31-.67,5.66,5.66,0,0,0,1.08-1.15,10.45,10.45,0,0,0,.79-1.29,21.58,21.58,0,0,0,1-2.27c.28-.76.57-1.54.89-2.32l-.64.45a3.57,3.57,0,0,1-.7.36,3.8,3.8,0,0,1-1.63.35,3.83,3.83,0,0,1-2.8-1.23,4.63,4.63,0,0,1-.89-1.41,5.65,5.65,0,0,1-.42-2.54,7.54,7.54,0,0,1,.59-2.49,11.32,11.32,0,0,1,1.31-2.34,18.49,18.49,0,0,1,1.74-2.07,4.92,4.92,0,0,1-.66-2.11,3.9,3.9,0,0,1,.46-2.2,5,5,0,0,1,.3-.46,3.9,3.9,0,0,1,.4-.51,2.65,2.65,0,0,1,.46-.39.93.93,0,0,1,.49-.15c.13.59.27,1.2.42,1.8a5.83,5.83,0,0,0,.73,1.7A19.56,19.56,0,0,1,145,9.75a13.69,13.69,0,0,1,2.77-1.14c.47-.13,1-.25,1.54-.38A7.36,7.36,0,0,1,151,8.07a4.92,4.92,0,0,1,1.59.28A2.56,2.56,0,0,1,153.84,9.31Zm-5.29,4c.34-.06.73-.15,1.18-.27a6.66,6.66,0,0,0,1.28-.5,4.33,4.33,0,0,0,1.08-.8,2,2,0,0,0,.55-1.18,1.05,1.05,0,0,0-.3-1,1.64,1.64,0,0,0-.88-.37,3.38,3.38,0,0,0-1.13.06,6.05,6.05,0,0,0-1,.29,7.3,7.3,0,0,0-1.52.79c-.46.31-.91.65-1.34,1s-.63.54-.94.83-.6.58-.88.88a5.82,5.82,0,0,0,2,.35A12.36,12.36,0,0,0,148.55,13.32Z"/>
        <path class="cls-5" d="M155.72,21.52a4.42,4.42,0,0,1-.63,0,4.19,4.19,0,0,1-.63-.07,5.2,5.2,0,0,0-.3,2.58,1.91,1.91,0,0,0,1,1.4,2.77,2.77,0,0,0,1.91.14,8.26,8.26,0,0,0,2.64-1.18,10.32,10.32,0,0,0,2.11-2,15,15,0,0,0,1.58-2.34,1.58,1.58,0,0,1,.58-.1c.17,0,.28.2.32.55a15.3,15.3,0,0,1-1.7,2.52,19.23,19.23,0,0,1-2.31,2.38,11,11,0,0,1-4,2.24,4,4,0,0,1-3.36-.34,4.76,4.76,0,0,1-1.64-1.89,4.88,4.88,0,0,1-.52-2.42,7.92,7.92,0,0,1,.44-2.36,11.12,11.12,0,0,1,2.64-4.29,8.59,8.59,0,0,1,1.93-1.47,9.66,9.66,0,0,1,2.4-.87,5.4,5.4,0,0,1,2.53,0,2.17,2.17,0,0,1,1.71,2.3,3.65,3.65,0,0,1-.22,1.06,5.07,5.07,0,0,1-1.53,2.13,8.41,8.41,0,0,1-2.25,1.35A8.57,8.57,0,0,1,155.72,21.52Zm2.41-5.38a12.33,12.33,0,0,0-1.89,2.05,14.14,14.14,0,0,0-1.45,2.41c.28-.08.6-.18,1-.31a13.18,13.18,0,0,0,1.62-.74,7.61,7.61,0,0,0,2.46-2.23,2.2,2.2,0,0,0,.42-1.48c0-.3-.09-.47-.28-.51a1.08,1.08,0,0,0-.64.09,3.32,3.32,0,0,0-.7.36C158.41,15.93,158.24,16.05,158.13,16.14Z"/>
        <path class="cls-5" d="M177.53,20.09q.87-.36.9.45a29.67,29.67,0,0,1-1.82,3,17.23,17.23,0,0,1-2.22,2.59,7.11,7.11,0,0,1-1.23.94,4.93,4.93,0,0,1-1.43.61,3.09,3.09,0,0,1-1.45,0,2.36,2.36,0,0,1-1.32-.85,2.46,2.46,0,0,1-.61-1.29,4.79,4.79,0,0,1,0-1.51,8.08,8.08,0,0,1,.39-1.54c.18-.51.35-1,.52-1.4a18.14,18.14,0,0,1,1.3-2.42,24,24,0,0,0,1.36-2.43c-.54.43-1.13.94-1.75,1.52a16.86,16.86,0,0,0-1.58,1.65c-.56.67-1.1,1.36-1.6,2.06s-1,1.41-1.48,2.14c-.25.37-.48.74-.7,1.1s-.44.74-.65,1.11l-.42.63a.73.73,0,0,1-.7.35,1.36,1.36,0,0,1-.67-.2,3,3,0,0,1-.6-.47,2.33,2.33,0,0,1-.42-.6.91.91,0,0,1-.1-.58,13.94,13.94,0,0,1,1.53-3.93c.72-1.26,1.45-2.48,2.2-3.66.31-.48.62-1,.91-1.51a14.21,14.21,0,0,1,1-1.51,1.3,1.3,0,0,1,.66-.5,1.43,1.43,0,0,1,1.13.28,2.42,2.42,0,0,1,.52.37.63.63,0,0,1,.18.45,1.46,1.46,0,0,1-.21.66,9.41,9.41,0,0,1-.63,1,12.81,12.81,0,0,0-.82,1.29c-.29.5-.54,1-.74,1.37.29-.34.65-.74,1.07-1.2s.87-.94,1.33-1.4a18.61,18.61,0,0,1,1.42-1.29,7.43,7.43,0,0,1,1.33-.9,3.1,3.1,0,0,1,1.78-.28,3.06,3.06,0,0,1,1.83.9.51.51,0,0,1,.2.38,2.16,2.16,0,0,1-.17.43c-.17.39-.37.78-.59,1.18s-.46.81-.7,1.21-.48.82-.7,1.25l-1,1.83a16.93,16.93,0,0,0-.94,1.92,2.8,2.8,0,0,0-.24,1.68.69.69,0,0,0,.73.52,2.78,2.78,0,0,0,1.36-.55,7.46,7.46,0,0,0,1.65-1.54c.39-.48.77-1,1.15-1.54A20.62,20.62,0,0,0,177.53,20.09Z"/>
        <path class="cls-5" d="M181.62,21.52a4.42,4.42,0,0,1-.63,0,4.19,4.19,0,0,1-.63-.07,5.2,5.2,0,0,0-.3,2.58,1.91,1.91,0,0,0,1,1.4,2.77,2.77,0,0,0,1.91.14,8.35,8.35,0,0,0,2.64-1.18,10.32,10.32,0,0,0,2.11-2,15.78,15.78,0,0,0,1.58-2.34,1.58,1.58,0,0,1,.58-.1c.17,0,.28.2.32.55a15.3,15.3,0,0,1-1.7,2.52,19.23,19.23,0,0,1-2.31,2.38,11,11,0,0,1-4,2.24,4,4,0,0,1-3.36-.34,4.76,4.76,0,0,1-1.64-1.89,4.88,4.88,0,0,1-.52-2.42,7.92,7.92,0,0,1,.44-2.36,11.12,11.12,0,0,1,2.64-4.29,8.59,8.59,0,0,1,1.93-1.47,9.66,9.66,0,0,1,2.4-.87,5.4,5.4,0,0,1,2.53,0,2.17,2.17,0,0,1,1.71,2.3,3.65,3.65,0,0,1-.22,1.06,5.07,5.07,0,0,1-1.53,2.13,8.41,8.41,0,0,1-2.25,1.35A8.57,8.57,0,0,1,181.62,21.52ZM184,16.14a12.33,12.33,0,0,0-1.89,2.05,14.14,14.14,0,0,0-1.45,2.41c.28-.08.6-.18,1-.31a13.18,13.18,0,0,0,1.62-.74,7.61,7.61,0,0,0,2.46-2.23,2.2,2.2,0,0,0,.42-1.48c0-.3-.09-.47-.28-.51a1.08,1.08,0,0,0-.64.09,3.32,3.32,0,0,0-.7.36C184.31,15.93,184.14,16.05,184,16.14Z"/>
        <path class="cls-5" d="M185.79,24.82a30.73,30.73,0,0,0,3.08-4.21,27.59,27.59,0,0,0,2.32-4.83,2.42,2.42,0,0,1-.28-1.29,2.94,2.94,0,0,1,.32-1.12,1.53,1.53,0,0,1,.69-.67.9.9,0,0,1,1.23,1,4.64,4.64,0,0,1-.31,1.13.91.91,0,0,0,.47.11h.46a5.59,5.59,0,0,0,1.34-.25,2.87,2.87,0,0,1,.73-.77c.22-.14.5-.08.81.18a3.14,3.14,0,0,1,1.28,1.64,1.57,1.57,0,0,1-.49,1.44c-.71.92-1.4,1.9-2.08,2.94A16.31,16.31,0,0,0,193.85,23a3.79,3.79,0,0,0-.3,1.59.87.87,0,0,0,.41.78,1.22,1.22,0,0,0,1,0,4.41,4.41,0,0,0,1.33-.87,14.52,14.52,0,0,0,1.71-1.9,17.43,17.43,0,0,0,1.57-2.47.55.55,0,0,1,.63,0,.65.65,0,0,1,.26.49,30.45,30.45,0,0,1-1.55,2.63,14.88,14.88,0,0,1-1.89,2.3,6.49,6.49,0,0,1-1.82,1.33,5,5,0,0,1-1.77.49,2.9,2.9,0,0,1-1.51-.28,2.55,2.55,0,0,1-1.06-1,3.32,3.32,0,0,1-.42-1.62,5.68,5.68,0,0,1,.45-2.2,19.65,19.65,0,0,1,1.4-2.94,21.9,21.9,0,0,1,1.62-2.46,1.09,1.09,0,0,1-.31,0,4.52,4.52,0,0,1-.64-.13,5.2,5.2,0,0,1-.79-.26q-.3.81-.78,1.92c-.32.73-.69,1.49-1.12,2.28a21,21,0,0,1-1.08,1.85,8.87,8.87,0,0,1-1.1,1.4,4.45,4.45,0,0,1-1.14.84A1.74,1.74,0,0,1,185.79,24.82Z"/>
        <path class="cls-5" d="M213.37,14.94c-.21.28-.45.64-.74,1.09s-.6.94-.91,1.46-.63,1.06-.94,1.62-.59,1.09-.83,1.6c-.5,1-.89,1.92-1.17,2.63s-.36,1.17-.23,1.37a.29.29,0,0,0,.3.13,1.74,1.74,0,0,0,.46-.1,2.78,2.78,0,0,0,.46-.21l.29-.18a5.73,5.73,0,0,0,1.1-.91c.31-.35.61-.71.89-1.08s.52-.73.76-1.12.46-.77.67-1.15a1.09,1.09,0,0,1,.57,0,.58.58,0,0,1,.33.45c-.27.49-.52,1-.76,1.43a11.73,11.73,0,0,1-.84,1.37c-.3.45-.61.88-.94,1.29a11.56,11.56,0,0,1-1.05,1.17,6.54,6.54,0,0,1-1.16.94,2.38,2.38,0,0,1-1.41.38,2.3,2.3,0,0,1-1.4-.45,2.61,2.61,0,0,1-.9-1.17,3.38,3.38,0,0,1-.2-.76,9.25,9.25,0,0,1-.95,1.18,4.78,4.78,0,0,1-1.15.89,3.11,3.11,0,0,1-1.87.42,2.81,2.81,0,0,1-1.71-.75,3.25,3.25,0,0,1-.95-1.53,6.38,6.38,0,0,1-.25-1.78A8,8,0,0,1,199.2,21a11.37,11.37,0,0,1,.88-2.1A13.5,13.5,0,0,1,201.34,17a14.65,14.65,0,0,1,1.53-1.61,6.57,6.57,0,0,1,1.78-1.18,4.41,4.41,0,0,1,2-.39,3.35,3.35,0,0,1,1.82.63A3.22,3.22,0,0,1,209.67,16a5.29,5.29,0,0,1,.77-.72,3.83,3.83,0,0,1,.91-.49,2.6,2.6,0,0,1,1.08-.16A1.42,1.42,0,0,1,213.37,14.94Zm-8.85,7.67a9.88,9.88,0,0,0,2.27-2.29,7.55,7.55,0,0,0,1.31-3,2.17,2.17,0,0,0,0-1.16,1,1,0,0,0-.87-.69,1.47,1.47,0,0,0-1,.22,6.53,6.53,0,0,0-.87.68,9.67,9.67,0,0,0-1.94,2.68,15.54,15.54,0,0,0-1.14,3.14c-.24,1.08-.19,1.8.16,2.14s.81.36,1.41,0a5.7,5.7,0,0,0,1.11-.75q.51-.45,1-.93a4.27,4.27,0,0,1-.8.1A.63.63,0,0,1,204.52,22.61Z"/>
        <path class="cls-5" d="M221.94,9.31a1.06,1.06,0,0,1,0,.66c-.08.18-.17.38-.28.6l-.34.67a7.28,7.28,0,0,1,1,.17,2.35,2.35,0,0,1,1,.58,1.87,1.87,0,0,1,.51,1,1,1,0,0,1,0,.53c-.05.08-.2.13-.44.17l-.84.14c-.33.06-.67.1-1,.14l-.93.11-.59.09H220l-.65,1.34L217,20.26c-.07.15-.21.42-.42.83s-.42.84-.64,1.33a5.81,5.81,0,0,0-.66,2.19c0,.48.17.75.49.8A2,2,0,0,0,217,25a9.17,9.17,0,0,0,1.73-1.53,13.17,13.17,0,0,0,1.18-1.52A20,20,0,0,0,221,20.09c.57-.3.87-.15.93.45-.3.56-.62,1.12-.95,1.68a17.84,17.84,0,0,1-1.11,1.62,18.59,18.59,0,0,1-1.27,1.5,9,9,0,0,1-1.46,1.25,3.94,3.94,0,0,1-1.53.67,3.57,3.57,0,0,1-1.72,0,1.92,1.92,0,0,1-1-.61,2.46,2.46,0,0,1-.56-1.1,3.85,3.85,0,0,1-.13-1.31,7,7,0,0,1,.22-1.35c.13-.44.27-.88.44-1.3s.33-.82.5-1.22a30.42,30.42,0,0,1,1.44-2.92c.54-.94,1.07-1.89,1.61-2.84l-1.54.18c-.44,0-.74.07-.89.07a1.39,1.39,0,0,1-.13-.66,2.69,2.69,0,0,1,.14-.74,3,3,0,0,1,.34-.67,1.87,1.87,0,0,1,.43-.48,3.66,3.66,0,0,1,1.42-.67,11.44,11.44,0,0,1,1.52-.28l.28,0,.28,0L219,9.73a4.86,4.86,0,0,0,.35-.68,1.64,1.64,0,0,1,.47-.61.72.72,0,0,1,.57-.11,2.61,2.61,0,0,1,.67.21,2,2,0,0,1,.56.38A1.13,1.13,0,0,1,221.94,9.31Z"/>
        <path class="cls-5" d="M228.82,14.83a1.75,1.75,0,0,1,.9-.06,2.14,2.14,0,0,1,1.32.84,4.23,4.23,0,0,1,.7,1.43,6.16,6.16,0,0,1,0,2.53,10.38,10.38,0,0,1-.78,2.48,1.81,1.81,0,0,0,1.75-.19,4.79,4.79,0,0,0,1.5-1.77c.54-.24.84-.09.89.45a7.24,7.24,0,0,1-2.22,2.65,6.38,6.38,0,0,1-3.26,1.07c-.3.4-.62.78-1,1.17a7.63,7.63,0,0,1-1.11,1,5.94,5.94,0,0,1-1.27.74,4.47,4.47,0,0,1-1.44.35,3.55,3.55,0,0,1-1.68-.27,3.79,3.79,0,0,1-1.32-.92A4.66,4.66,0,0,1,221,25a5.14,5.14,0,0,1-.42-1.65,7.68,7.68,0,0,1,.08-2,9.16,9.16,0,0,1,.55-1.95,9.23,9.23,0,0,1,2.19-3.3A7,7,0,0,1,224.92,15a4.81,4.81,0,0,1,1.8-.54,4.49,4.49,0,0,1,1,0,2.92,2.92,0,0,1,1,.29ZM227.48,21a4.38,4.38,0,0,1,1-.67,1.11,1.11,0,0,1,1,0,1.08,1.08,0,0,1,.33.31,6.79,6.79,0,0,0,.27-1.57,5.25,5.25,0,0,0-.16-1.62,1.88,1.88,0,0,0-.4-.77,3.77,3.77,0,0,0-.66-.57,3,3,0,0,0-.95.08,3.57,3.57,0,0,0-.87.34,4.48,4.48,0,0,0-1.32,1.07,8.12,8.12,0,0,0-1.07,1.6,11.22,11.22,0,0,0-.76,1.83,7.35,7.35,0,0,0-.34,1.81,4.2,4.2,0,0,0,.19,1.51,1.55,1.55,0,0,0,.81.94,2,2,0,0,0,1.62,0A4.17,4.17,0,0,0,228,24a2.61,2.61,0,0,1-.72-.38,1.59,1.59,0,0,1-.49-.6,1.18,1.18,0,0,1,0-1A2.83,2.83,0,0,1,227.48,21Z"/>
        <path class="cls-5" d="M230.76,24.82a31.59,31.59,0,0,0,3.08-4.21,28.32,28.32,0,0,0,2.32-4.83,2.33,2.33,0,0,1-.28-1.29,2.77,2.77,0,0,1,.32-1.12,1.53,1.53,0,0,1,.69-.67.9.9,0,0,1,1.23,1,5.13,5.13,0,0,1-.31,1.13.87.87,0,0,0,.46.11h.47a5.59,5.59,0,0,0,1.34-.25,2.73,2.73,0,0,1,.73-.77q.33-.21.81.18a3.06,3.06,0,0,1,1.27,1.64,1.55,1.55,0,0,1-.49,1.44q-1.07,1.38-2.07,2.94A16.31,16.31,0,0,0,238.82,23a3.82,3.82,0,0,0-.31,1.59.89.89,0,0,0,.42.78,1.22,1.22,0,0,0,1,0,4.53,4.53,0,0,0,1.33-.87,14.52,14.52,0,0,0,1.71-1.9,17.36,17.36,0,0,0,1.56-2.47.55.55,0,0,1,.63,0,.66.66,0,0,1,.27.49,30.45,30.45,0,0,1-1.55,2.63,16.13,16.13,0,0,1-1.89,2.3,6.64,6.64,0,0,1-1.82,1.33,5,5,0,0,1-1.77.49,2.9,2.9,0,0,1-1.51-.28,2.55,2.55,0,0,1-1.06-1,3.11,3.11,0,0,1-.42-1.62,5.84,5.84,0,0,1,.44-2.2,20.68,20.68,0,0,1,1.4-2.94,21.85,21.85,0,0,1,1.63-2.46,1.09,1.09,0,0,1-.31,0,6.32,6.32,0,0,1-1.43-.39c-.2.54-.47,1.18-.78,1.92s-.69,1.49-1.12,2.28-.72,1.29-1.08,1.85a8.34,8.34,0,0,1-1.11,1.4,4.41,4.41,0,0,1-1.13.84A1.74,1.74,0,0,1,230.76,24.82Z"/>
        <path class="cls-5" d="M244.5,20.09a.65.65,0,0,1,.59-.22,1.12,1.12,0,0,1,.87.56,3.84,3.84,0,0,1,.71,1.57,7.58,7.58,0,0,1,.17,2,11.14,11.14,0,0,1-.34,2.28,14.49,14.49,0,0,1-.82,2.4,11.67,11.67,0,0,1-2.33,3.6,10.1,10.1,0,0,1-3.1,2.15,12.85,12.85,0,0,1-3.78,1,26.66,26.66,0,0,1-4.34.17q-7.4-.27-14.88-.47t-14.65-.23q-7.15,0-13.76.14t-12.26.58c-3.78.27-7.16.63-10.16,1.09a43.47,43.47,0,0,0-7.4,1.69l-1.16.38c-.27.08-.46.1-.55,0s-.11-.2,0-.43a9,9,0,0,1,.38-1,8.7,8.7,0,0,1,1.89-2.71,12.89,12.89,0,0,1,2.59-2A15.12,15.12,0,0,1,165,31.47a19.54,19.54,0,0,1,2.62-.65,57.44,57.44,0,0,1,6.41-.63c2.44-.13,5.09-.19,7.92-.19s5.82.05,8.93.16,6.26.23,9.43.39,6.29.33,9.39.52l8.86.53q4.22.25,7.83.43c2.41.13,4.5.2,6.27.24q1.49,0,3.24,0a16.64,16.64,0,0,0,3.4-.4,10.28,10.28,0,0,0,3.06-1.25,6.11,6.11,0,0,0,2.26-2.52,12,12,0,0,0,.85-2.31,9.22,9.22,0,0,0,.31-2.17,5,5,0,0,0-.27-1.79,2.26,2.26,0,0,0-.86-1.18.36.36,0,0,1-.19-.24A.43.43,0,0,1,244.5,20.09Z"/>
      </g>
      <g>
        <path class="cls-6" d="M8.14.5H22L20.8,6.14h-8l-1.94,9.24h6.86L16.54,21H9.67l-2,9.24h8l-1.2,5.64H.62Z"/>
        <path class="cls-6" d="M20,21l1-4.83H34L33,21Z"/>
        <path class="cls-6" d="M52.22,3.9,40,30.28h7l-1.2,5.64H32.11l.72-3.4L45.11,6.14H38.65L39.86.5H53Z"/>
      </g>
    </g>
  </g>
</svg>
